<svg width="88" height="223" viewBox="0 0 88 223" xmlns="http://www.w3.org/2000/svg"><title>669A1C2C-B7B7-42DD-869C-70A084524D3A</title><g fill="none" fill-rule="evenodd"><path d="M76.42 85.635c-1.023-3.155-.448-9.585-1.963-17.376a71.226 71.226 0 0 0-2.329-8.808c.003-.062.03-.735.032-1.001.033-8.159-5.035-10.478-9.614-10.478-4.437-2.824-9.73-2.463-10.393-3.972-.842-1.912-.86-7.118-.86-7.118H36.02S36 42.088 35.16 44c-.664 1.509-5.957 1.148-10.395 3.972-4.578 0-9.645 2.32-9.612 10.478.001.266.027.939.03 1.001a71.226 71.226 0 0 0-2.328 8.808c-1.515 7.791-.94 14.221-1.963 17.376-.31.951-1.018 4.441-.69 9.07.245 3.473 2.113 17.463 2.66 21.294.279 2.039.75 5.399 1.027 6.926.46 2.537 1.078 3.514 1.883 4.824.795 1.296 2.214 3.09 3.134 4.071.902.961 1.245 1.33 1.782 1.132.602-.222.877-.764.51-1.98a53.886 53.886 0 0 0-1.5-4.244c-.395-.962-1.106-3.841-1.203-4.37-.117-.638-.248-.954.088-1.082.24-.09.396.39.578.87.21.552.92 2.08 1.332 3.076.329.792.559.924 1.06.814.647-.143.673-.457.64-.921-.032-.465-.595-2.917-.825-4.3-.255-1.527-1.06-3.091-2.065-4.073a17.579 17.579 0 0 1-1.464-1.67c-.342-.45-.642-.822-.686-1.376-.332-3.678-.046-7.272.452-10.07.632-3.55 1.403-6.125 1.822-11.984.18-2.523-.351-5.206-.27-6.036.313-3.224 2.013-4.027 3.54-12.429.07-.382.136-.786.2-1.202.428 1.069.957 2.466 1.582 4.766 1.275 4.692 2.461 8.425 2.461 14.705 0 5.471-1.664 11.192-2.13 20.926-.001.03-.478 10.638-.379 14.5.254 9.958 1.572 17.25 3.924 25.365 1.281 4.418 1.927 6.995 1.883 9.056-.107 4.92-1.647 9.633-1.647 14.682 0 17.656 3.032 19.01 3.417 37.278.055 2.586-.942 4.183-2.322 5.916-.802 1.005-1.516 1.494-1.516 2.57 0 .758.527 1.118 1.018 1.118h9.315c.554 0 1.262-.459 1.282-1.36.033-1.487-.669-2.591-.983-3.616-.362-1.178-.504-2.375-.576-3.57-.693-22.308 2.947-24.796 3.12-37.687.107-7.916-2.416-8.264-1.387-18.624.196-1.973 1.082-7.67 1.328-9.675a196.38 196.38 0 0 0 1.404-27.774c.208.043.67.064.964.064.295 0 .757-.02.966-.064-.191 8.737.24 18.291 1.404 27.774.245 2.005 1.131 7.702 1.328 9.675 1.028 10.36-1.495 10.708-1.388 18.624.173 12.891 3.813 15.379 3.12 37.687-.072 1.195-.214 2.392-.576 3.57-.314 1.025-1.016 2.129-.983 3.615.02.902.729 1.361 1.282 1.361h9.315c.49 0 1.018-.36 1.018-1.118 0-1.076-.714-1.565-1.515-2.57-1.38-1.733-2.378-3.33-2.324-5.916.386-18.269 3.418-19.622 3.418-37.278 0-5.049-1.54-9.762-1.647-14.682-.044-2.06.602-4.638 1.882-9.056 2.353-8.116 3.67-15.407 3.925-25.366.1-3.861-.378-14.47-.379-14.5-.466-9.733-2.13-15.454-2.13-20.925 0-6.28 1.187-10.013 2.461-14.705.625-2.3 1.153-3.697 1.582-4.766.064.416.13.82.2 1.202 1.528 8.402 3.227 9.205 3.541 12.429.08.83-.45 3.513-.27 6.036.418 5.86 1.189 8.435 1.82 11.985.5 2.797.786 6.39.454 10.07-.045.553-.345.925-.687 1.375-.313.41-.94 1.16-1.463 1.67-1.007.982-1.811 2.546-2.065 4.074-.23 1.382-.793 3.834-.826 4.299-.033.464-.006.778.64.92.5.111.731-.021 1.06-.813.412-.996 1.123-2.524 1.332-3.077.181-.479.339-.96.578-.869.337.128.206.444.089 1.082-.097.529-.808 3.408-1.205 4.37a54.214 54.214 0 0 0-1.498 4.243c-.368 1.217-.093 1.759.509 1.98.537.199.88-.17 1.782-1.13.92-.982 2.339-2.776 3.135-4.072.804-1.31 1.422-2.287 1.882-4.824.277-1.527.748-4.887 1.027-6.926.547-3.831 2.416-17.821 2.66-21.294.327-4.629-.381-8.119-.69-9.07" fill="#FCB686"/><path d="M44.15 67.718c.392 2.411 1.831 3.89 4.227 4.546 2.54.694 5.52.791 8.122.392 2.692-.414 4.83-1.846 5.976-4.298.89-1.905 1.167-4.009 1.438-6.065.008 2.239-.229 4.63-1.158 6.696-1.194 2.655-3.64 4.03-6.499 4.404-4.38.575-11.948.009-12.105-5.675m-.993.001c-.135 2.55-1.627 4.24-4.074 5.038-2.53.826-5.583.993-8.212.61-2.798-.406-5.148-1.783-6.32-4.378-.934-2.063-1.166-4.46-1.159-6.696.27 2.056.547 4.16 1.437 6.065 1.177 2.517 3.384 3.931 6.144 4.321 2.604.368 5.584.273 8.114-.46 2.367-.687 3.63-2.169 4.07-4.5m12.48-18.41c-1.885.28-3.775.508-5.671.704-1.13.116-2.323.078-3.44.264-1.085.18-1.729 1.085-2.92 1.09-1.165.004-1.796-.86-2.85-1.078-1.116-.231-2.372-.158-3.51-.275a127.087 127.087 0 0 1-5.672-.705c1.903.043 3.804.124 5.706.204 1.156.05 2.392-.03 3.535.136.998.146 1.617.987 2.655 1.034 1.208.055 1.865-.902 3-1.044 1.128-.14 2.324-.077 3.462-.125 1.901-.08 3.803-.162 5.705-.205m-11.985 49.24a.743.743 0 1 0 0 1.487.743.743 0 0 0 0-1.487" fill="#F4995B"/><path fill="#80BFDA" d="M61.666 102.202h-35.99l-.427 3.93h36.844l-.427-3.93"/><path d="M63.35 126.777c-.03-3.976-.35-11.52-.35-11.55-.113-2.348-.41-7.222-.934-9.095H25.248c-.525 1.873-.821 6.747-.934 9.096-.001.03-.322 7.573-.351 11.55-.02 2.777-.147 5.35-.059 7.865H43.11c.099-3.01.483-11.27.547-11.27.065 0 .449 8.26.548 11.27h19.204c.09-2.514-.037-5.088-.058-7.866" fill="#95CBEF"/><path d="M42.346 106.126c-.022 2.665-.083 5.142-.1 7.714-.01 1.61-.125 3.392 0 4.779.089.971.242 1.756 1.41 2.172-.925 0-1.338-.495-1.43-.597-.396-.435-.505-1.037-.587-1.596-.205-1.412-.17-3.49-.185-5.162a586.175 586.175 0 0 0-.097-7.31h.989" fill="#80BFDA"/><path d="M43.4 111.693a.513.513 0 1 0 0 1.026.513.513 0 0 0 0-1.026" fill="#A1D5F2"/><path d="M43.656 6.341c-7.985 0-10.741 4.865-12.129 11.586-.683 3.311-.44 7.095-.49 9.584-.099 4.957-.05 6.46 5.583 12.486 2.692 2.88 4.836 3.329 7.036 3.329 2.2 0 4.345-.45 7.038-3.33 5.632-6.024 5.681-7.528 5.58-12.485-.05-2.489.505-6.778-.178-10.088C54.709 10.7 51.642 6.34 43.656 6.34" fill="#FFC799"/><path d="M43.654 42.712c-6.394 0-11.5-8.55-12.268-10.22.566 2.018 1.952 3.994 5.234 7.505 2.692 2.88 4.836 3.329 7.036 3.329 2.2 0 4.345-.45 7.038-3.33 3.297-3.526 4.68-5.504 5.241-7.532-.764 1.678-5.887 10.248-12.28 10.248" fill="#F4995B"/><path d="M40.419 25.266a.283.283 0 0 0 .022-.353 3.175 3.175 0 0 0-2.58-1.307c-2.01 0-3.093 1.191-3.093 1.191s.663 1.706 2.616 1.747c1.434.031 2.236-.388 3.035-1.278" fill="#FFFDFC"/><path d="M39.33 24.627c0-.273-.075-.525-.191-.752a3.03 3.03 0 0 0-.776-.23c-.011-.003-.023-.003-.034-.004a3.157 3.157 0 0 0-.447-.033c-.046 0-.091.004-.136.007-.128.002-.25.013-.37.026a6.25 6.25 0 0 0-.951.189 4.98 4.98 0 0 0-.3.107 1.661 1.661 0 0 0-.154.69 1.68 1.68 0 0 0 3.36 0" fill="#4E8793"/><path d="M38.592 24.627a.942.942 0 1 1-1.884 0 .942.942 0 0 1 1.884 0" fill="#000"/><path d="M38.07 24.09a.33.33 0 1 0 0 .66.33.33 0 0 0 0-.66" fill="#FFFDFC"/><path d="M40.483 24.947c-1.217-2.238-4.402-1.952-6.074.09 2.395-1.471 4.278-1.664 6.058-.012.04.037.05-.016.016-.078" fill="#504038"/><path d="M46.894 25.266a.283.283 0 0 1-.022-.353 3.175 3.175 0 0 1 2.58-1.307c2.01 0 3.093 1.191 3.093 1.191s-.664 1.706-2.616 1.747c-1.433.031-2.235-.388-3.035-1.278" fill="#FFFDFC"/><path d="M47.983 24.627c0-.273.075-.525.191-.752.23-.102.487-.186.777-.23.01-.003.022-.003.033-.004.142-.02.291-.033.447-.033.046 0 .09.004.137.007.128.002.249.013.37.026.335.039.655.107.95.189.105.033.204.07.299.107.096.212.156.443.156.69a1.68 1.68 0 0 1-3.36 0" fill="#4E8793"/><path d="M48.72 24.627a.942.942 0 1 0 1.885-.001.942.942 0 0 0-1.884.001" fill="#000"/><path d="M50.07 24.09a.33.33 0 1 1 0 .66.33.33 0 0 1 0-.66" fill="#FFFDFC"/><path d="M46.83 24.947c1.217-2.238 4.401-1.952 6.074.09-2.395-1.471-4.277-1.664-6.058-.012-.04.037-.05-.016-.015-.078" fill="#504038"/><path d="M28.792 27.214c.728 2.259 2.402 3.696 3.742 3.21 1.338-.485 1.834-2.71 1.107-4.968-.727-2.26-2.402-3.697-3.74-3.211-1.34.485-1.836 2.71-1.109 4.97m29.728-.001c-.726 2.259-2.401 3.696-3.74 3.21-1.339-.485-1.835-2.71-1.108-4.968.727-2.26 2.402-3.697 3.74-3.211 1.34.485 1.836 2.71 1.109 4.97" fill="#FFC799"/><path d="M30.184 22.943c.42-.05.638-.083.689.741.08 1.314.285 4.258.295 4.657.008.325-.228.578-.582.275-.516-.443-.977-1.04-1.236-2.013-.464-1.74.094-3.57.834-3.66m26.946 0c-.421-.05-.64-.083-.69.741-.08 1.314-.286 4.258-.295 4.657-.008.325.228.578.582.275.516-.443.977-1.04 1.236-2.013.464-1.74-.094-3.57-.834-3.66" fill="#F4995B"/><path d="M40.021 22.28c1.017.18 1.89-.537.967-1.26-.732-.57-2.386-.444-3.254-.43-1 .015-2.082.02-2.952.415-.385.174-1.748.985-1.053 1.458.463.319 1.104-.27 1.455-.381.463-.148.865-.16 1.373-.153 1.132.018 2.346.142 3.464.35.22.04-.54-.1 0 0" fill="#47280E"/><g fill="#47280E"><path d="M47.426 22.311c-1.015.19-1.896-.52-.978-1.25.726-.578 2.382-.466 3.25-.46 1 .006 2.081.004 2.956.39.387.17 1.757.97 1.066 1.449-.46.322-1.107-.26-1.458-.369-.466-.143-.867-.152-1.375-.14a21.064 21.064 0 0 0-3.46.38c-.22.042.537-.105 0 0"/><path d="M36.053 10.423s-1.326-3.424.346-5.364c6.163-8.126 12.848-.139 16.505-1.064 1.783-.452 1.846-2.043 1.243-3.852 3.969 3.443 4.344 7.528 2.148 10.446.995 3.455.973 11.553.427 15.323h-.483s-.376-12.626-3.694-14.966c-4.135 2.153-11.518 3.02-16.492-.523"/></g><path d="M35.97 10.185l-.243-3.844c-6.655-2.935-7.018 11.046-5.205 19.571h.496c-.274-9.31 1.953-10.22 4.953-15.727" fill="#47280E"/><path d="M41.284 30.653c.183-.2.395-.275.449-.29.053-.017.078-.01.095.015.019.027.012.07-.012.084-.025.013-.225.085-.373.312a.821.821 0 0 0-.13.52c.008.194.152.319.33.35.194.034.363.026.658.041.169.009.337.062.445.124.196.112.328.285.81.31.48.024.63-.135.836-.227.113-.05.286-.086.455-.078.296.015.463.04.658.025.181-.013.337-.122.365-.314a.82.82 0 0 0-.078-.531c-.124-.241-.315-.332-.339-.348-.023-.016-.026-.06-.003-.085.02-.022.044-.027.096-.006.051.021.255.118.417.334.138.186.214.46.183.7a.77.77 0 0 1-.185.403.644.644 0 0 1-.467.205c-.356-.007-.457-.022-.693-.034-.14-.007-.32.076-.492.174-.129.073-.37.189-.773.168-.403-.02-.632-.159-.752-.245-.161-.115-.332-.216-.473-.223-.236-.012-.337-.008-.692-.037a.639.639 0 0 1-.444-.25.768.768 0 0 1-.144-.42 1.013 1.013 0 0 1 .253-.677" fill="#F4995B"/><path d="M39.198 34.953s1.967 2.168 4.394 2.168 4.492-2.248 4.492-2.248-2.065-.494-4.492-.494-4.394.574-4.394.574" fill="#FF867B"/><path d="M39.96 35.429c.728.174 1.441.192 2.092.169.585-.02 1.129-.072 1.656-.083.748-.016 1.418-.008 2.075-.038 1.03-.05 2.04-.188 3.122-.787a.166.166 0 0 0 .068-.23.175.175 0 0 0-.235-.058c-1.018.564-1.983.696-2.968.744-.652.03-1.318.022-2.07.038-.537.01-1.08.062-1.664.082-1.153.042-2.427-.058-3.575-.854a.176.176 0 0 0-.24.034.165.165 0 0 0 .042.234 4.952 4.952 0 0 0 1.697.749" fill="#DD3931"/></g></svg>