<svg width="88" height="224" viewBox="0 0 88 224" xmlns="http://www.w3.org/2000/svg"><title>7585402D-9147-4437-B746-86F993C7A19B</title><g fill="none" fill-rule="evenodd"><path d="M43.877 28.716H31.338s-.144 11.242-2.315 12.666C12.108 46.556 3.944 72.087 3.674 76.21 3.533 78.358.188 88.224.364 98.42c.184 10.678 2.65 16.726 2.65 16.726s.049 5.716.127 7.341c.13 2.701 1.525 4.258 2.336 5.718.765 1.379 2.248 3.273 3.037 4.417.774 1.121 1.067 1.55 1.628 1.417.627-.15 1.983-.676 1.774-1.99a59.129 59.129 0 0 0-.945-4.616c-.27-1.053-.605-4.143-.633-4.705-.034-.68-.124-1.028.227-1.115.25-.062.344.46.464.982.136.603.647 2.288.929 3.38.224.868.436 1.036.949.989.662-.062.729-.384.756-.872.027-.487-.216-3.114-.267-4.582-.056-1.623.059-3.261-.817-4.418a18.726 18.726 0 0 1-1.24-1.935c-.282-.514-.505-1.523-.505-1.523s4.154-10.383 3.764-15.417h29.279v-69.5" fill="#FFC799"/><path d="M43.73 28.716h12.54s.144 11.242 2.315 12.666C75.5 46.556 83.663 72.087 83.933 76.21c.141 2.149 3.486 12.015 3.31 22.21-.183 10.678-2.65 16.726-2.65 16.726s-.049 5.716-.127 7.341c-.13 2.701-.896 4.258-2.226 5.718-1.052 1.155-2.358 3.273-3.147 4.417-.774 1.121-1.067 1.55-1.628 1.417-.627-.15-1.983-.676-1.774-1.99.271-1.703.703-3.671.945-4.616.27-1.053.606-4.143.633-4.705.035-.68.124-1.028-.227-1.115-.25-.062-.344.46-.463.982-.137.603-.647 2.288-.929 3.38-.224.868-.437 1.036-.95.989-.661-.062-.729-.384-.756-.872-.027-.487.217-3.114.267-4.582.056-1.623-.059-3.261.817-4.418a18.8 18.8 0 0 0 1.24-1.935c.283-.514.506-1.523.506-1.523s-4.155-10.383-3.765-15.417H43.73v-69.5" fill="#FFC799"/><path d="M67.424 63.105c.916-1.528 1.104-4.611 1.104-4.611s-6.529-15.19-10.945-16.285c-3.166-3.656-7.34-6.343-12.61-7.99v-.142h-2.34v.141c-5.27 1.648-9.443 4.335-12.61 7.99-4.415 1.096-10.944 16.286-10.944 16.286s.186 3.075 1.097 4.6c-8.55 13.152-6.328 37.797-4.14 42.627 6.946 8.66 46.751 8.66 55.509 0 2.27-5.535 4.383-29.707-4.121-42.616" fill="#FFC799"/><path d="M24.198 67.886c-.54-.089-1.125-.198-1.714-.397-.585-.203-1.176-.507-1.629-1.007-.459-.487-.75-1.2-1.022-1.987a8.362 8.362 0 0 1-.34-1.178 3.046 3.046 0 0 1-.024-1.154c.073-.373.24-.75.42-1.14l.543-1.161 1.036-2.19 1.782-3.697c1.019-2.103 1.639-3.414 1.54-3.477-.093-.06-.887 1.143-2.038 3.177a98.922 98.922 0 0 0-1.941 3.622 122.847 122.847 0 0 0-1.64 3.34c-.184.395-.39.832-.492 1.348a3.91 3.91 0 0 0 .028 1.509c.094.47.24.9.387 1.304.146.404.303.808.5 1.195.115.224.245.443.392.647a7.056 7.056 0 0 0-.701.847c-.07.098-.147.201-.222.314a88.68 88.68 0 0 0-.228.358c-.163.247-.314.532-.486.833-.327.61-.68 1.319-1.017 2.126-.177.402-.336.832-.511 1.277-.084.224-.164.455-.248.69l-.126.355-.119.365a43.393 43.393 0 0 0-.913 3.17l-.208.86-.193.883c-.067.297-.123.6-.182.906-.057.306-.123.613-.172.927a57.361 57.361 0 0 0-.54 3.891l-.094 1c-.034.331-.049.662-.074.99-.051.653-.072 1.3-.1 1.935-.013.317-.013.632-.02.944-.004.312-.016.62-.01.927.008.61.003 1.21.031 1.793.077 2.335.3 4.428.57 6.168.035.217.07.429.102.636.017.104.032.206.05.306l.058.296.214 1.098c.072.342.15.657.218.947.07.29.132.556.196.793.267.943.44 1.455.494 1.44.133-.036-.379-2.14-.766-5.604a62.92 62.92 0 0 1-.392-6.1c-.017-.576-.004-1.166-.004-1.767-.002-.302.014-.606.02-.913.01-.307.013-.617.03-.93.033-.625.056-1.261.11-1.905.026-.322.042-.647.076-.973l.093-.985c.143-1.318.307-2.603.516-3.835.046-.308.108-.611.16-.913.055-.302.107-.6.17-.894l.177-.873.191-.848c.26-1.115.53-2.17.827-3.14l.106-.363.113-.353.22-.686c.157-.443.298-.872.454-1.272.297-.809.607-1.52.889-2.138.15-.305.279-.595.419-.848l.192-.369c.064-.116.128-.223.186-.327.225-.391.417-.688.552-.897a3.88 3.88 0 0 0 1.196.991c.336.18.676.308 1.005.405.66.189 1.279.265 1.835.317 2.214.178 3.579.22 3.592.102.014-.12-1.341-.378-3.524-.71m39.211-.001c.54-.089 1.125-.198 1.714-.397.585-.203 1.177-.507 1.629-1.007.459-.487.75-1.2 1.023-1.987.136-.392.263-.785.338-1.178.077-.393.096-.785.025-1.154-.073-.373-.24-.75-.42-1.14l-.543-1.161-1.036-2.19-1.782-3.697c-1.019-2.103-1.639-3.414-1.54-3.477.093-.06.887 1.143 2.038 3.177a98.922 98.922 0 0 1 1.941 3.622 113.987 113.987 0 0 1 1.64 3.34c.184.395.39.832.492 1.348a3.91 3.91 0 0 1-.028 1.509c-.094.47-.24.9-.387 1.304-.146.404-.303.808-.5 1.195a4.963 4.963 0 0 1-.392.647c.178.179.421.457.702.847.07.098.146.201.222.314l.227.358c.163.247.314.532.487.833.327.61.68 1.319 1.016 2.126.177.402.337.832.511 1.277.084.224.164.455.248.69l.126.355.12.365c.328.978.628 2.042.912 3.17l.208.86.193.883c.067.297.124.6.182.906.057.306.123.613.172.927.223 1.249.396 2.552.54 3.891l.094 1c.034.331.049.662.074.99.051.653.072 1.3.1 1.935.014.317.013.632.021.944.003.312.015.62.01.927-.009.61-.004 1.21-.032 1.793a51.312 51.312 0 0 1-.57 6.168c-.035.217-.07.429-.102.636-.017.104-.032.206-.05.306l-.058.296-.214 1.098c-.071.342-.15.657-.218.947-.07.29-.132.556-.196.793-.267.943-.44 1.455-.493 1.44-.133-.036.378-2.14.765-5.604a62.7 62.7 0 0 0 .392-6.1c.017-.576.004-1.166.004-1.767.002-.302-.014-.606-.02-.913-.01-.307-.013-.617-.03-.93-.033-.625-.056-1.261-.11-1.905-.026-.322-.042-.647-.076-.973l-.093-.985a64.166 64.166 0 0 0-.516-3.835c-.046-.308-.108-.611-.16-.913-.055-.302-.107-.6-.17-.894l-.177-.873-.19-.848a50.038 50.038 0 0 0-.827-3.14l-.107-.363-.113-.353-.22-.686c-.157-.443-.298-.872-.454-1.272a29.958 29.958 0 0 0-.889-2.138c-.15-.305-.278-.595-.418-.848l-.193-.369c-.063-.116-.128-.223-.186-.327-.225-.391-.417-.688-.552-.897a3.88 3.88 0 0 1-1.196.991 5.174 5.174 0 0 1-1.005.405c-.66.189-1.279.265-1.835.317-2.214.178-3.579.22-3.592.102-.013-.12 1.341-.378 3.524-.71" fill="#E8A16B"/><path d="M42.83 123.223H14.387c-.03 1.694-.032 3.238.027 4.285.552 9.93 2.233 18.857 4.31 27.927 1.087 4.742.66 16.007.738 21.042.277 17.608 6.363 18.73 7.249 36.949.125 2.579-.55 4.4-2.671 6.128-1.232 1.003-2.336 1.49-2.32 2.563.013.756.84 1.115 1.604 1.115h14.504c.862 0 1.958-.457 1.975-1.356.028-1.484-1.083-2.584-1.589-3.606-.58-1.175-.82-2.369-.951-3.56-1.428-22.248 3.881-23.155 3.95-36.01.041-7.895-.569-27.798-.217-29.797a126.35 126.35 0 0 0 1.834-25.68m1.732 0h28.442c.031 1.694.032 3.238-.027 4.285-.552 9.93-1.914 18.107-4.31 27.927-1.154 4.726-.659 16.007-.738 21.042-.277 17.608-6.635 18.808-7.522 37.027-.125 2.579.822 4.322 2.945 6.05 1.231 1.003 2.336 1.49 2.318 2.563-.011.756-.838 1.115-1.603 1.115H49.564c-.862 0-1.958-.457-1.976-1.356-.028-1.484 1.083-2.584 1.589-3.606.58-1.175.82-2.369.951-3.56 1.429-22.248-3.881-23.155-3.95-36.01-.041-7.895.569-27.798.218-29.797a126.25 126.25 0 0 1-1.834-25.68" fill="#FFC799"/><path d="M43.754 99.238a.746.746 0 1 0 0 1.492.746.746 0 0 0 0-1.492" fill="#E8A16B"/><path d="M73.926 132.471c-.045-5.315-.536-15.397-.537-15.437-.172-3.139-.626-9.653-1.428-12.157 0 0-9.66 6.707-28.25 6.707-18.592 0-28.065-6.707-28.065-6.707-.802 2.504-1.256 9.018-1.428 12.157-.001.04-.492 10.122-.537 15.437-.031 3.713-.089 7.354-.089 7.354 9.643-1.293 19.438-.17 29.374 3.16.152-4.024.838-7.521.838-7.521s.685 3.497.837 7.52c8.578-3.871 18.485-4.656 29.374-3.16 0 0-.058-3.64-.09-7.353" fill="#95CBEF"/><path d="M43.704 115.191c16.132 0 25.946-4.453 29.027-6.102-.208-1.715-.463-3.256-.77-4.212 0 0-9.66 6.707-28.25 6.707-18.592 0-28.065-6.707-28.065-6.707-.307.958-.562 2.503-.771 4.221 3.052 1.656 12.73 6.093 28.83 6.093" fill="#80BFDA"/><path d="M42.438 115.175c-.021 2.673-.083 5.16-.1 7.741-.01 1.616-.125 3.404 0 4.796.089.975.244 1.762 1.416 2.18-.929 0-1.344-.496-1.437-.599-.396-.436-.506-1.041-.588-1.602-.206-1.418-.17-3.502-.186-5.18a590.342 590.342 0 0 0-.097-7.336h.992" fill="#80BFDA"/><path d="M43.496 122.193a.515.515 0 1 0 0 1.03.515.515 0 0 0 0-1.03" fill="#A1D5F2"/><path d="M28.89 31.39c.727 2.258 2.402 3.697 3.74 3.211 1.34-.486 1.835-2.71 1.108-4.97-.727-2.259-2.402-3.696-3.74-3.21-1.34.485-1.835 2.71-1.108 4.969m29.728 0c-.727 2.258-2.402 3.697-3.74 3.211-1.34-.486-1.836-2.71-1.109-4.97.727-2.259 2.402-3.696 3.74-3.21 1.34.485 1.836 2.71 1.109 4.969" fill="#FFC799"/><path d="M30.28 27.119c.421-.05.64-.084.69.741.08 1.313.286 4.258.295 4.657.008.324-.228.578-.582.275-.516-.443-.977-1.041-1.236-2.014-.463-1.74.094-3.57.834-3.66m26.945.001c-.42-.05-.638-.084-.688.741-.08 1.313-.286 4.258-.296 4.657-.008.324.229.578.582.275.516-.443.977-1.041 1.236-2.014.464-1.74-.094-3.57-.834-3.66" fill="#E8A16B"/><path d="M43.754 10.517c-7.986 0-10.743 4.865-12.13 11.586-.682 3.31-.85 7.095-.9 9.584-.1 4.956-.452 15.814 13.03 15.814s13.232-10.858 13.132-15.814c-.05-2.49-.01-6.778-.693-10.089-1.387-6.721-4.453-11.08-12.44-11.08" fill="#FFC799"/><path d="M56.879 31.3c-.872 4.748-3.78 10.818-13.127 10.818-9.257 0-12.151-5.976-13.022-10.681l-.006.25c-.1 4.956-.452 15.814 13.03 15.814s13.232-10.858 13.132-15.814l-.007-.387" fill="#E0B89B"/><path d="M40.134 26.258c1.03-.068 1.706-.976.636-1.454-.847-.38-2.423.142-3.263.363-.967.255-2.015.522-2.766 1.113-.331.262-1.46 1.376-.671 1.669.526.198 1.007-.527 1.32-.72.415-.255.802-.363 1.297-.478a21.065 21.065 0 0 1 3.447-.493c.223-.015-.548.032 0 0m12.85-1.218c-.736-.61-1.776-.902-2.738-1.18-.833-.242-2.396-.8-3.252-.443-1.074.45-.436 1.363.58 1.467.09.008.436.037.02.003 1.134.094 2.338.294 3.434.576.492.126.876.244 1.285.51.308.2.771.935 1.302.75.795-.273-.305-1.414-.63-1.684" fill="#47280E"/><path d="M47.595 24.887l-.021-.003a.286.286 0 0 0 .02.003M36.15 14.598s-1.326-3.423.346-5.364C42.66 1.108 49.344 9.096 53 8.17c1.783-.451 1.846-2.042 1.243-3.852 3.968 3.444 4.344 7.53 2.149 10.447.995 3.455.972 11.553.426 15.323h-.483s-.377-12.625-3.694-14.967c-4.134 2.154-11.518 3.022-16.492-.523" fill="#47280E"/><path d="M36.067 14.36l-.243-3.843c-6.654-2.935-7.018 11.046-5.204 19.571h.495c-.274-9.31 1.953-10.221 4.952-15.728" fill="#47280E"/><path d="M51.276 22.009c.009.017-.028.054-.107.109-.04.025-.09.06-.152.092l-.222.098c-.342.135-.878.223-1.525.194-.647-.02-1.395-.161-2.202-.246-.802-.09-1.687-.029-2.623.117-.934.144-1.83.339-2.666.453-.835.117-1.606.15-2.25.095-.645-.055-1.157-.191-1.49-.328a6.163 6.163 0 0 1-.22-.097 1.486 1.486 0 0 1-.153-.087c-.081-.05-.119-.085-.112-.103.034-.087.761.216 1.992.215a12.63 12.63 0 0 0 2.153-.212c.807-.138 1.698-.347 2.66-.497.482-.075.96-.125 1.425-.141.464-.017.922.006 1.345.066.843.119 1.564.298 2.173.365.608.076 1.1.055 1.434-.007.083-.018.158-.032.223-.044.065-.013.12-.03.164-.039.09-.018.145-.02.153-.003m-3.312-1.552c-.01.085-.45.083-1.14.21-.344.06-.752.154-1.207.27-.455.116-.96.254-1.506.368a7.323 7.323 0 0 1-1.588.164c-.496-.012-.947-.087-1.306-.216a2.511 2.511 0 0 1-.786-.424c-.162-.136-.227-.237-.205-.265.053-.074.427.174 1.097.303.334.068.74.096 1.195.08.454-.02.954-.09 1.478-.197.527-.11 1.035-.233 1.508-.323a8.26 8.26 0 0 1 1.278-.16c.371-.012.672.014.876.059.204.044.31.094.306.131" fill="#E8A16B"/><path d="M37.556 27.09c-1.13 0-2.295.447-2.99 1.339-.695.892-.812 2.25-.131 3.151.742.981 2.136 1.189 3.361 1.086.807-.068 1.619-.24 2.323-.64.704-.399 1.293-1.046 1.493-1.83.577-2.259-2.33-3.104-4.056-3.105m12.89-.001c1.13 0 2.294.447 2.99 1.339.694.892.812 2.25.13 3.151-.741.981-2.136 1.189-3.361 1.086-.807-.068-1.619-.24-2.323-.64-.704-.399-1.293-1.046-1.493-1.83-.577-2.259 2.33-3.104 4.057-3.105" fill="#F8B889"/><path d="M40.516 29.441a.283.283 0 0 0 .022-.353 3.173 3.173 0 0 0-2.58-1.306c-2.01 0-3.093 1.191-3.093 1.191s.664 1.705 2.616 1.748c1.434.03 2.236-.389 3.035-1.28" fill="#FFFDFC"/><path d="M39.428 28.803c0-.273-.076-.525-.192-.752a3.009 3.009 0 0 0-.777-.231l-.033-.003a3.274 3.274 0 0 0-.447-.034c-.046 0-.09.005-.136.007a4.76 4.76 0 0 0-.37.027 6.233 6.233 0 0 0-.951.188c-.105.034-.204.07-.299.108a1.656 1.656 0 0 0-.156.69 1.68 1.68 0 0 0 3.36 0" fill="#4E8793"/><path d="M38.69 28.803a.941.941 0 1 1-1.883 0 .941.941 0 0 1 1.882 0" fill="#000"/><path d="M38.167 28.267a.33.33 0 1 0 0 .658.33.33 0 0 0 0-.658" fill="#FFFDFC"/><path d="M40.58 29.122c-1.217-2.237-4.401-1.952-6.073.09 2.395-1.47 4.276-1.664 6.058-.01.039.036.049-.017.015-.08" fill="#504038"/><path d="M46.991 29.441a.283.283 0 0 1-.022-.353 3.175 3.175 0 0 1 2.58-1.306c2.01 0 3.093 1.191 3.093 1.191s-.663 1.705-2.616 1.748c-1.433.03-2.236-.389-3.035-1.28" fill="#FFFDFC"/><path d="M48.08 28.803c0-.273.075-.525.191-.752.231-.103.487-.186.776-.231l.034-.003c.142-.02.29-.033.448-.034.045 0 .09.005.135.007a4.8 4.8 0 0 1 .37.027c.337.039.656.106.951.188.105.034.204.07.3.108.095.211.155.442.155.69a1.681 1.681 0 0 1-3.36 0" fill="#4E8793"/><path d="M48.818 28.803a.941.941 0 1 0 1.883 0 .941.941 0 0 0-1.883 0" fill="#000"/><path d="M50.168 28.267a.33.33 0 1 1 0 .658.33.33 0 0 1 0-.658" fill="#FFFDFC"/><path d="M46.927 29.122c1.217-2.237 4.402-1.952 6.074.09-2.395-1.47-4.277-1.664-6.058-.01-.04.036-.05-.017-.016-.08" fill="#504038"/><path d="M51.698 41.172c0 3.034-3.534 5.493-7.895 5.493-4.36 0-7.894-2.46-7.894-5.493 0-2.785 2.977-5.085 6.838-5.445.346-.032.698.359 1.056.359.356 0 .706-.391 1.049-.36 3.864.357 6.846 2.659 6.846 5.446" fill="#E0B89B"/><path d="M41.465 34.566a1.07 1.07 0 0 1 .436-.31c.052-.018.077-.011.095.012.02.026.016.07-.008.085-.024.013-.221.094-.358.328a.82.82 0 0 0-.109.525c.017.193.166.312.347.335.194.025.363.01.659.012.169 0 .34.048.45.104.2.103.34.27.822.273.482.003.623-.162.825-.263.112-.055.282-.1.452-.099.296.002.464.02.66-.003.18-.02.33-.137.35-.33a.817.817 0 0 0-.102-.527c-.135-.236-.33-.319-.354-.333-.024-.015-.029-.058-.008-.084.02-.024.043-.03.096-.01.053.018.26.106.431.315.147.18.234.449.215.691a.774.774 0 0 1-.167.41c-.1.12-.275.22-.458.225-.356.009-.457-.001-.693-.003-.141 0-.317.091-.484.196-.126.08-.363.205-.766.202-.402-.002-.637-.13-.762-.212-.165-.107-.34-.2-.482-.2-.236-.003-.337.006-.693-.007a.641.641 0 0 1-.454-.231.77.77 0 0 1-.163-.412 1.015 1.015 0 0 1 .223-.689" fill="#E8A16B"/><path d="M48.164 39.918s-1.838-2.28-4.26-2.42c-2.423-.141-4.616 1.984-4.616 1.984s2.034.613 4.456.753c2.423.14 4.42-.317 4.42-.317" fill="#FF7E78"/><path d="M47.43 39.398c-.716-.216-1.427-.275-2.077-.29-.586-.013-1.132.007-1.658-.013-.748-.028-1.418-.075-2.074-.083-1.032-.01-2.048.07-3.163.606a.166.166 0 0 0-.08.224.174.174 0 0 0 .23.072c1.05-.504 2.02-.58 3.006-.57.653.007 1.317.055 2.068.082.537.02 1.082 0 1.667.014 1.153.025 2.42.198 3.52 1.06.074.058.182.05.241-.02a.164.164 0 0 0-.029-.236 4.95 4.95 0 0 0-1.65-.846" fill="#D15959"/><path d="M43.752 46.29c-8.11 0-11.335-3.74-12.597-7.831.968 4.533 3.91 9.042 12.599 9.042 8.746 0 11.712-4.57 12.69-9.133-1.27 4.126-4.521 7.921-12.692 7.921" fill="#D3A281"/></g></svg>