<svg width="89" height="223" viewBox="0 0 89 223" xmlns="http://www.w3.org/2000/svg" xmlns:xlink="http://www.w3.org/1999/xlink"><title>AC4653C1-E4C6-45BB-A0BB-64FFB3BF8DE8</title><defs><path d="M4.439 6.374h-.01c-1.113-.002-2.114-.401-2.801-1.035C1.034 4.792.674 4.07.673 3.282v-.005c0-.792.379-1.527.955-2.058C2.315.585 3.316.185 4.429.183h.01c1.017 0 2.055.34 2.81 1.036.576.531.954 1.267.954 2.06v.003c0 .79-.361 1.51-.955 2.057-.754.696-1.792 1.035-2.81 1.035z" id="a"/><path d="M3.982 6.374h-.009c-1.114-.002-2.114-.401-2.8-1.035C.578 4.792.217 4.07.216 3.282v-.003c0-.793.378-1.529.955-2.06C1.86.585 2.86.185 3.973.183h.01c1.017 0 2.055.34 2.81 1.036.576.53.954 1.266.954 2.058v.005c0 .79-.361 1.51-.954 2.057-.755.696-1.793 1.035-2.81 1.035z" id="c"/></defs><g fill="none" fill-rule="evenodd"><path d="M81.117 85.903c-1.027-3.167.576-9.106-.944-16.925-.708-3.64-3.878-9.354-3.878-9.354s.03-.738.032-1.005c.032-8.188-6.08-10.516-10.676-10.516-4.454-2.834-11.163-2.472-11.829-3.986-.844-1.919-.863-7.143-.863-7.143h-16.64s-.019 5.224-.864 7.143c-.665 1.514-7.375 1.152-11.828 3.986-4.596 0-10.195 2.328-10.162 10.516.001.267.031 1.005.031 1.005s-3.683 5.509-4.39 9.148c-1.522 7.82.083 13.964-.944 17.131-.31.955-1.021 4.457-.693 9.102.246 3.486 2.67 21.372 2.67 21.372s.753 5.418 1.03 6.95c.462 2.547 2.623 3.527 3.431 4.842.798 1.3 2.222 3.1 3.146 4.086.905.964 1.25 1.334 1.788 1.136.604-.223.88-.767.512-1.988a53.863 53.863 0 0 0-1.505-4.259c-.397-.965-1.111-3.854-1.208-4.384-.118-.641-.25-.96.088-1.087.24-.091.399.392.58.872.21.554.924 2.089 1.338 3.088.329.795.561.928 1.063.816.65-.143.676-.458.643-.924-.033-.466-.598-2.928-.829-4.314-.255-1.534-.344-3.104-1.354-4.088a17.858 17.858 0 0 1-1.468-1.677c-.344-.452-.69-1.38-.69-1.38s-.045-7.3.455-10.107c.634-3.562 1.408-6.147 1.828-12.028.181-2.531-.271-6.057-.271-6.057s2.971-11.046 3.035-11.464c.43 1.073 6.112 11.022 6.112 17.325 0 3.25-.585 6.587-1.16 10.795h35.871c-.574-4.208-1.16-7.545-1.16-10.795 0-6.303 5.683-16.252 6.113-17.325.064.418 3.035 11.464 3.035 11.464s-.452 3.526-.271 6.057c.42 5.881 1.193 8.466 1.828 12.028.5 2.808.454 10.106.454 10.106s-.345.93-.69 1.381a17.71 17.71 0 0 1-1.468 1.677c-1.01.984-1.098 2.554-1.353 4.088-.23 1.386-.796 3.848-.83 4.314-.032.466-.005.78.644.924.502.112.734-.02 1.063-.816.414-1 1.128-2.534 1.337-3.088.183-.48.34-.963.58-.872.338.128.206.446.089 1.087-.097.53-.81 3.419-1.208 4.384a54.147 54.147 0 0 0-1.505 4.259c-.369 1.22-.092 1.765.511 1.988.54.198.883-.172 1.789-1.136.924-.985 2.347-2.785 3.146-4.086.808-1.315 2.455-2.295 2.917-4.842.278-1.532 1.544-6.95 1.544-6.95s2.424-17.886 2.67-21.372c.328-4.645-.383-8.147-.692-9.102" fill="#FCB686"/><path d="M63.407 112.672c-.15-3.962-.509-7.258-.876-10.142H26.747c-.367 2.884-.725 6.18-.877 10.142 0 .03-.371 10.61-.234 14.46.356 9.93.336 17.203 2.78 25.297 1.329 4.405 1.446 5.13 1.766 7.697.32 2.567-1.343 10.94-1.292 15.976.178 17.608 4.652 18.958 5.223 37.177.08 2.58-.904 4.172-2.272 5.9-.794 1.003-1.506 1.49-1.495 2.563.008.756.54 1.115 1.033 1.115h9.35c.554 0 1.261-.457 1.272-1.356.018-1.484-.698-2.584-1.024-3.606-.374-1.175-.529-2.369-.613-3.56-.92-22.248 2.501-23.155 2.545-36.01.027-7.895-2.264-14.162-2.227-17.52.037-3.36 1.861-10.278 2.088-12.277a194.488 194.488 0 0 0 1.129-27.699c.119.024 1.361.024 1.48 0a194.39 194.39 0 0 0 1.13 27.7c.226 1.998 2.144 9.148 2.087 12.275-.058 3.128-2.255 9.626-2.228 17.52.044 12.856 3.467 13.763 2.546 36.011-.084 1.191-.239 2.385-.614 3.56-.325 1.022-1.04 2.122-1.023 3.606.01.899.718 1.356 1.273 1.356h9.35c.492 0 1.025-.36 1.033-1.115.01-1.074-.701-1.56-1.495-2.563-1.368-1.728-2.353-3.32-2.272-5.9.571-18.219 5.044-19.569 5.223-37.177.05-5.035-1.73-12.684-1.292-15.976.437-3.292.437-3.292 1.767-7.697 2.443-8.094 2.422-15.366 2.778-25.297.138-3.85-.233-14.43-.234-14.46" fill="#FCB686"/><path d="M45.189 70.859c.431 2.66 2.019 4.293 4.662 5.016 2.804.766 6.093.874 8.964.433 2.97-.456 5.33-2.037 6.595-4.743.982-2.101 1.287-4.423 1.587-6.693.008 2.471-.253 5.11-1.278 7.39-1.318 2.93-4.017 4.446-7.172 4.86-4.835.634-13.186.01-13.358-6.263m-1.096.001c-.15 2.814-1.796 4.678-4.496 5.56-2.793.911-6.161 1.095-9.062.673-3.088-.449-5.681-1.968-6.976-4.832-1.029-2.276-1.285-4.92-1.278-7.389.3 2.27.605 4.592 1.587 6.693 1.298 2.778 3.734 4.339 6.78 4.768 2.873.407 6.162.301 8.954-.508 2.612-.757 4.005-2.392 4.491-4.965" fill="#F4995B"/><path fill="#80BFDA" d="M62.714 102.53H26.593l-.429 3.944h36.978l-.428-3.944"/><path d="M64.404 127.194c-.03-3.99-.351-11.561-.353-11.592-.112-2.356-.41-7.248-.936-9.128H26.163c-.526 1.88-.824 6.772-.937 9.128 0 .031-.323 7.601-.352 11.592-.02 2.788-.148 5.37-.059 7.894H44.09c.099-3.02.484-11.311.55-11.311.064 0 .45 8.29.548 11.311h19.274c.09-2.523-.037-5.106-.058-7.894" fill="#95CBEF"/><path d="M43.324 106.468c-.023 2.674-.084 5.161-.1 7.742-.011 1.616-.126 3.404 0 4.796.089.975.242 1.762 1.415 2.18-.929 0-1.343-.497-1.437-.6-.396-.435-.506-1.04-.587-1.6-.206-1.418-.172-3.503-.186-5.181a590.396 590.396 0 0 0-.098-7.337h.993" fill="#80BFDA"/><path d="M44.382 112.055a.515.515 0 1 0 0 1.03.515.515 0 0 0 0-1.03" fill="#A1D5F2"/><path d="M44.639 6.341c-7.986 0-10.742 4.865-12.13 11.586-.683 3.311-.438 7.095-.49 9.584-.099 4.957-.05 6.46 5.583 12.486 2.692 2.88 4.837 3.329 7.037 3.329s4.345-.45 7.037-3.33c5.632-6.024 5.681-7.528 5.581-12.485-.05-2.489.505-6.778-.178-10.088C55.692 10.7 52.624 6.34 44.639 6.34" fill="#FFC799"/><path d="M51.918 38.849c-2.785 2.879-5.005 3.328-7.282 3.328-2.276 0-4.496-.45-7.281-3.328-2.756-2.848-4.22-4.687-4.987-6.356.566 2.017 1.952 3.993 5.234 7.504 2.692 2.88 4.837 3.329 7.037 3.329s4.345-.45 7.037-3.33c3.297-3.526 4.68-5.504 5.241-7.532-.763 1.678-2.228 3.52-4.999 6.385" fill="#F4995B"/><path d="M41.4 25.266a.283.283 0 0 0 .023-.353 3.175 3.175 0 0 0-2.579-1.307c-2.01 0-3.093 1.191-3.093 1.191s.663 1.706 2.615 1.747c1.434.031 2.236-.388 3.035-1.278" fill="#FFFDFC"/><path d="M40.313 24.627c0-.273-.075-.525-.192-.752a3.044 3.044 0 0 0-.776-.23c-.011-.003-.022-.003-.033-.004a3.167 3.167 0 0 0-.448-.033c-.046 0-.09.004-.136.007-.128.002-.25.013-.37.026a6.25 6.25 0 0 0-.951.189c-.105.033-.204.07-.298.107a1.651 1.651 0 0 0-.156.69 1.68 1.68 0 0 0 3.36 0" fill="#4E8793"/><path d="M39.575 24.627a.942.942 0 1 1-1.885-.001.942.942 0 0 1 1.885.001" fill="#000"/><path d="M39.052 24.09a.33.33 0 1 0 0 .66.33.33 0 0 0 0-.66" fill="#FFFDFC"/><path d="M41.465 24.947c-1.217-2.238-4.4-1.952-6.073.09 2.394-1.471 4.277-1.664 6.058-.012.039.037.049-.016.015-.078" fill="#504038"/><path d="M47.877 25.266a.283.283 0 0 1-.023-.353c.297-.404 1.122-1.307 2.58-1.307 2.01 0 3.093 1.191 3.093 1.191s-.663 1.706-2.616 1.747c-1.433.031-2.235-.388-3.034-1.278" fill="#FFFDFC"/><path d="M48.965 24.627c0-.273.076-.525.191-.752.23-.102.488-.186.777-.23.01-.003.023-.003.033-.004.142-.02.291-.033.447-.033.046 0 .09.004.137.007.128.002.25.013.37.026.336.039.655.107.95.189.105.033.204.07.3.107.096.212.155.443.155.69a1.68 1.68 0 0 1-3.36 0" fill="#4E8793"/><path d="M49.704 24.627a.942.942 0 1 0 1.883 0 .942.942 0 0 0-1.883 0" fill="#000"/><path d="M51.053 24.09a.33.33 0 1 1 0 .66.33.33 0 0 1 0-.66" fill="#FFFDFC"/><path d="M47.813 24.947c1.216-2.238 4.4-1.952 6.073.09-2.395-1.471-4.277-1.664-6.058-.012-.04.037-.05-.016-.015-.078" fill="#504038"/><path d="M29.775 27.214c.727 2.259 2.402 3.696 3.74 3.21 1.34-.485 1.836-2.71 1.109-4.968-.727-2.26-2.402-3.697-3.741-3.211-1.339.485-1.835 2.71-1.108 4.97m29.728-.001c-.727 2.259-2.402 3.696-3.741 3.21-1.339-.485-1.835-2.71-1.108-4.968.727-2.26 2.402-3.697 3.741-3.211 1.34.485 1.835 2.71 1.108 4.97" fill="#FFC799"/><path d="M31.166 22.943c.42-.05.638-.083.689.741.08 1.314.286 4.258.295 4.657.008.325-.228.578-.581.275-.516-.443-.977-1.04-1.237-2.013-.463-1.74.094-3.57.834-3.66m26.946 0c-.421-.05-.638-.083-.69.741-.08 1.314-.285 4.258-.295 4.657-.008.325.229.578.582.275.516-.443.977-1.04 1.236-2.013.464-1.74-.093-3.57-.833-3.66" fill="#F4995B"/><g transform="translate(47.393 27.16)"><mask id="b" fill="#fff"><use xlink:href="#a"/></mask><path d="M1.628 5.339c.687.634 1.688 1.033 2.801 1.035 1.02.003 2.062-.337 2.82-1.035.593-.547.954-1.268.954-2.057 0-.794-.377-1.531-.955-2.063C6.491.52 5.45.18 4.43.183 3.316.185 2.315.585 1.628 1.22 1.05 1.75.672 2.488.673 3.282c.001.79.361 1.51.955 2.057" mask="url(#b)"/></g><g transform="translate(33.464 27.16)"><mask id="d" fill="#fff"><use xlink:href="#c"/></mask><path d="M1.172 5.339c.687.634 1.687 1.033 2.801 1.035 1.021.003 2.062-.337 2.82-1.035.593-.547.953-1.268.954-2.057.001-.794-.377-1.531-.954-2.063C6.035.52 4.994.18 3.973.183 2.86.185 1.86.585 1.173 1.22.594 1.75.216 2.488.216 3.282c.001.79.362 1.51.955 2.057" mask="url(#d)"/></g><path d="M39.052 34.055s1.924 3.633 6.244 3.34c2.659-.182 4.695-2.094 4.695-2.094s-2.276-1.618-4.935-1.437c-2.66.18-3.57 1.117-6.004.19" fill="#FFF"/><path d="M41.003 22.28c1.017.18 1.891-.537.967-1.26-.73-.57-2.386-.444-3.253-.43-1.001.015-2.083.02-2.953.415-.385.174-1.748.985-1.053 1.458.464.319 1.104-.27 1.455-.381.464-.148.865-.16 1.374-.153a21.24 21.24 0 0 1 3.463.35c.22.04-.539-.1 0 0" fill="#47280E"/><g fill="#47280E"><path d="M48.56 22.267c-.963.372-1.958-.167-1.189-1.051.608-.7 2.257-.892 3.111-1.045.986-.176 2.048-.375 2.978-.155.411.098 1.904.633 1.312 1.23-.395.402-1.136-.053-1.5-.096-.485-.057-.88.008-1.379.113a21.114 21.114 0 0 0-3.333 1.004c-.208.08.51-.201 0 0"/><path d="M37.036 10.423s-1.326-3.424.345-5.364c6.163-8.126 12.848-.139 16.505-1.064 1.783-.452 1.847-2.043 1.243-3.852 3.969 3.443 4.344 7.528 2.149 10.446.994 3.455.972 11.553.427 15.323h-.484s-.376-12.626-3.694-14.966c-4.134 2.153-11.518 3.02-16.491-.523"/></g><path d="M36.953 10.185l-.244-3.844c-6.654-2.935-7.018 11.046-5.204 19.571H32c-.274-9.31 1.953-10.22 4.953-15.727" fill="#47280E"/><path d="M42.266 30.653c.184-.2.395-.275.449-.29.054-.017.078-.01.095.015.02.027.013.07-.012.084-.025.013-.224.085-.373.312a.821.821 0 0 0-.13.52c.008.194.152.319.33.35.194.034.363.026.658.041.17.009.338.062.445.124.196.112.328.285.81.31.48.024.63-.135.836-.227.113-.05.286-.086.455-.078.296.015.464.04.66.025.18-.013.336-.122.364-.314a.824.824 0 0 0-.079-.531c-.124-.241-.315-.332-.339-.348-.023-.016-.025-.06-.003-.085.02-.022.044-.027.096-.006.052.021.255.118.417.334.139.186.214.46.183.7a.77.77 0 0 1-.185.403.642.642 0 0 1-.467.205c-.355-.007-.456-.022-.693-.034-.14-.007-.32.076-.492.174-.129.073-.37.189-.773.168-.403-.02-.632-.159-.752-.245-.161-.115-.332-.216-.473-.223-.236-.012-.337-.008-.692-.037a.64.64 0 0 1-.444-.25.768.768 0 0 1-.143-.42 1.013 1.013 0 0 1 .252-.677m10.953 47.684c-.046 0-.088.153-.136.426-.049.273-.103.666-.197 1.141a8.134 8.134 0 0 1-.473 1.601 4.864 4.864 0 0 1-.46.841 3.235 3.235 0 0 1-.675.729c-.132.1-.27.182-.413.25a2.642 2.642 0 0 1-.454.156c-.314.077-.654.12-.97.16-.634.075-1.21.098-1.697.103-.486.004-.882-.01-1.159-.012s-.435.009-.444.055c-.007.044.135.117.406.198.27.08.67.168 1.173.224.502.055 1.107.08 1.777.035.336-.026.68-.054 1.062-.136.189-.042.384-.1.575-.186a2.89 2.89 0 0 0 .544-.325c.335-.26.6-.57.81-.891.21-.32.366-.653.488-.976.238-.65.332-1.258.371-1.764a6.83 6.83 0 0 0-.008-1.195c-.031-.28-.076-.434-.12-.434m-.366 5.877c-.046-.001-.088.152-.135.425-.05.273-.103.667-.197 1.14a8.14 8.14 0 0 1-.473 1.603c-.124.283-.273.57-.461.84a3.235 3.235 0 0 1-.674.73c-.133.1-.27.182-.413.25a2.61 2.61 0 0 1-.454.155c-.315.077-.655.12-.97.16-.634.076-1.21.1-1.698.104-.486.005-.882-.01-1.159-.013-.277-.001-.434.01-.443.056-.008.043.134.117.405.198.271.08.67.167 1.173.223a10.07 10.07 0 0 0 1.778.036c.336-.026.68-.055 1.061-.137.189-.042.384-.1.575-.185.192-.088.377-.197.544-.325.335-.26.6-.57.81-.892.21-.32.367-.652.489-.975.237-.65.332-1.258.37-1.764a6.734 6.734 0 0 0-.008-1.196c-.03-.28-.075-.433-.12-.433m-.643 6.688c-.045 0-.088.153-.135.426-.049.273-.103.666-.196 1.141a8.126 8.126 0 0 1-.474 1.602 4.894 4.894 0 0 1-.461.841 3.258 3.258 0 0 1-.674.728c-.132.1-.27.183-.412.25a2.623 2.623 0 0 1-.455.156c-.314.077-.655.12-.97.16-.633.075-1.21.099-1.697.103-.487.005-.883-.01-1.16-.012-.276-.002-.434.01-.442.055-.009.044.133.118.404.198.271.08.671.168 1.174.224a9.936 9.936 0 0 0 1.777.035 7.587 7.587 0 0 0 1.061-.136c.19-.042.384-.1.576-.186.191-.087.376-.196.544-.325.335-.26.6-.57.809-.89.21-.32.368-.653.489-.977.237-.65.332-1.258.372-1.763.037-.507.02-.915-.01-1.196-.03-.28-.075-.434-.12-.434m-15.42-8.196c.21.32.475.631.81.891.168.128.352.238.544.325.191.085.386.144.575.186.38.082.726.11 1.062.136.67.046 1.275.02 1.777-.035a6.913 6.913 0 0 0 1.173-.224c.27-.08.413-.154.405-.198-.009-.046-.166-.057-.443-.055-.277.002-.673.016-1.16.012a15.513 15.513 0 0 1-1.696-.104 8.798 8.798 0 0 1-.97-.16 2.647 2.647 0 0 1-.455-.154 2.404 2.404 0 0 1-.413-.251 3.235 3.235 0 0 1-.674-.729 4.864 4.864 0 0 1-.46-.84 8.134 8.134 0 0 1-.474-1.602c-.094-.475-.147-.868-.196-1.141-.047-.273-.09-.427-.136-.426-.044 0-.089.153-.12.434a6.83 6.83 0 0 0-.009 1.195c.04.506.134 1.114.372 1.764.121.323.277.655.488.976m1.175 6.768c.169.128.353.237.544.325.192.085.387.143.575.185.381.082.726.11 1.062.137.67.045 1.276.02 1.778-.036a6.941 6.941 0 0 0 1.173-.223c.27-.081.413-.155.405-.198-.01-.046-.167-.057-.444-.056-.276.002-.672.018-1.159.013a15.331 15.331 0 0 1-1.697-.104 8.798 8.798 0 0 1-.97-.16 2.639 2.639 0 0 1-.454-.155 2.404 2.404 0 0 1-.413-.25 3.235 3.235 0 0 1-.674-.73 4.884 4.884 0 0 1-.46-.84 8.145 8.145 0 0 1-.474-1.602c-.094-.474-.148-.868-.196-1.14-.048-.274-.09-.427-.136-.426-.045 0-.09.153-.12.433s-.047.69-.009 1.196a6.64 6.64 0 0 0 .371 1.764c.122.323.278.655.49.975.208.321.473.632.808.892m5.736 6.823c-.276.002-.673.017-1.16.012a15.35 15.35 0 0 1-1.697-.104c-.314-.04-.655-.082-.97-.16a2.61 2.61 0 0 1-.454-.154 2.314 2.314 0 0 1-.412-.251 3.247 3.247 0 0 1-.674-.728 4.894 4.894 0 0 1-.461-.841 8.126 8.126 0 0 1-.474-1.602c-.093-.475-.148-.868-.196-1.141-.048-.273-.09-.426-.136-.426-.045 0-.09.153-.12.434a6.64 6.64 0 0 0-.008 1.196c.039.505.134 1.113.371 1.763.122.324.278.656.489.976.209.32.474.631.81.891a2.721 2.721 0 0 0 1.118.511 7.6 7.6 0 0 0 1.062.136c.67.046 1.275.021 1.777-.035a6.868 6.868 0 0 0 1.173-.224c.271-.08.413-.154.405-.198-.008-.046-.166-.057-.443-.055M44.788 77.3c-.064-.011-.182.286-.297.784-.115.498-.22 1.197-.258 1.977-.037.778 0 1.485.067 1.992.066.507.156.814.22.808.138-.013.12-1.256.196-2.777.07-1.521.208-2.757.072-2.783m-.19 7.532c-.128-.022-.39.918-.424 2.111-.038 1.194.169 2.148.297 2.133.136-.013.149-.96.186-2.118.032-1.158.076-2.105-.059-2.126m-.05 6.067c-.063-.017-.19.207-.313.599a5.611 5.611 0 0 0-.165.701 7.234 7.234 0 0 0-.092.878 7.1 7.1 0 0 0 .022.882c.026.27.063.512.11.712.091.4.2.634.264.622.136-.027.035-1.004.087-2.197.042-1.193.22-2.16.087-2.198m.077-21.555c-.195.013-.573-2.03-.598-4.57-.03-2.538.303-4.586.497-4.576.205.009.197 2.055.227 4.572.025 2.517.078 4.562-.126 4.574m18.183-18.888c.009.11-1.061.25-2.758.596a41.85 41.85 0 0 0-6.485 1.833c-1.232.461-2.384.96-3.41 1.457-.518.246-.995.49-1.42.746a7.055 7.055 0 0 0-1.103.807 4.758 4.758 0 0 0-.733.84c-.186.273-.313.53-.402.746-.177.435-.216.705-.273.7-.042 0-.102-.282.003-.783.055-.248.154-.548.325-.87.169-.321.406-.665.721-.998.314-.332.7-.652 1.138-.948.439-.296.927-.57 1.443-.836a30.862 30.862 0 0 1 3.458-1.539c2.517-.946 4.914-1.45 6.656-1.66.217-.03.425-.052.622-.07.197-.019.383-.037.557-.05.348-.02.647-.039.893-.042.492-.002.764.02.768.07m-33.71.937c.023-.097.956.036 2.444.332a110.084 110.084 0 0 1 7.407 1.773c.522.146 1.046.278 1.54.494.246.106.482.238.694.388.055.034.104.075.154.114.05.04.1.078.147.119l.136.126c.045.041.09.082.129.127.332.346.576.714.767 1.057.377.693.565 1.288.684 1.7.115.413.15.649.103.666-.048.018-.172-.186-.365-.563-.197-.374-.455-.928-.86-1.536a5.051 5.051 0 0 0-.75-.895 1.367 1.367 0 0 0-.117-.103l-.12-.1c-.043-.033-.086-.062-.13-.093-.044-.03-.085-.065-.133-.09a3.338 3.338 0 0 0-.596-.301c-.432-.171-.934-.287-1.465-.424l-1.632-.42c-2.236-.58-4.258-1.117-5.715-1.541-1.456-.424-2.346-.733-2.322-.83M45.065 97.92a.426.426 0 1 1-.852 0 .426.426 0 0 1 .852 0" fill="#F4995B"/></g></svg>