<svg width="89" height="223" viewBox="0 0 89 223" xmlns="http://www.w3.org/2000/svg"><title>DC3ED544-6E09-4131-AC10-A31AD3531F17</title><g fill="none" fill-rule="evenodd"><path d="M85.26 86.299c-1.24-3.155-4.814-24.006-10.802-33.719-5.14-8.335-17.108-9.831-18.98-11.76-1.873-1.93-.526-3.938-.526-3.938H34.671s1.347 2.009-.525 3.938c-1.873 1.929-13.842 3.425-18.98 11.76-5.99 9.713-9.562 30.564-10.805 33.72-.374.951-1.234 4.44-.838 9.07.298 3.472 1.795 16.445 2.459 20.276.339 2.039.91 5.4 1.246 6.926.559 2.537 1.309 3.513 2.285 4.825.966 1.295 2.688 3.089 3.805 4.07 1.095.961 3.18 1.684 3.832 1.485.73-.221 1.065-.763.619-1.98a48.22 48.22 0 0 0-1.82-4.243c-.481-.962-1.344-3.841-1.461-4.37-.142-.638-.302-.954.107-1.082.29-.09.481.39.702.87.253.552 1.116 2.08 1.617 3.076.398.792.678.924 1.285.814.786-.143.818-.457.778-.921-.04-.465-.723-2.917-1.003-4.3-.308-1.527-1.285-3.091-2.506-4.073a19.202 19.202 0 0 1-1.775-1.67c-.416-.45-.78-.822-.834-1.376-.403-3.678-.056-7.272.549-10.07.767-3.55 2.302-7.75 2.81-13.61C16.436 87.493 20 78.793 20 78.793s1.068 15.148 3.367 23.224c.16 2.968-.979 6.297-1.215 10.355 0 .03-.58 10.638-.46 14.5.31 9.958 1.948 16.484 3.67 26.113.82 4.589.355 18.256.355 23.306 0 17.655 4.705 18.693 5.172 36.962.067 2.586-1.144 4.183-2.82 5.916-.971 1.005-1.839 1.494-1.839 2.57 0 .758.641 1.118 1.237 1.118h11.305c.672 0 1.532-.459 1.556-1.36.04-1.487-.812-2.591-1.194-3.616-.438-1.178-.61-2.375-.698-3.57-.841-22.308 2.174-24.795 2.384-37.685.13-7.917-.716-8.085.533-18.444.238-1.974.5-7.852.797-9.857 1.412-9.483 1.936-19.037 1.704-27.774.207.035.618.056.957.062a8.07 8.07 0 0 0 .956-.062c-.232 8.737.292 18.291 1.704 27.774.298 2.005.56 7.883.797 9.857 1.249 10.36.404 10.527.533 18.444.21 12.89 3.225 15.377 2.385 37.685-.088 1.195-.26 2.392-.699 3.57-.382 1.025-1.234 2.129-1.194 3.615.024.902.884 1.361 1.556 1.361h11.305c.597 0 1.237-.36 1.237-1.118 0-1.076-.868-1.565-1.84-2.57-1.675-1.733-2.885-3.33-2.819-5.916.467-18.269 5.173-19.307 5.173-36.962 0-5.05-.466-18.717.355-23.306 1.72-9.629 3.36-16.155 3.668-26.114.12-3.861-.458-14.47-.46-14.5-.235-4.057-1.374-7.386-1.214-10.354 2.3-8.076 3.367-23.224 3.367-23.224s3.564 8.7 3.783 11.223c.508 5.86 2.042 10.06 2.81 13.61.604 2.798.951 6.392.548 10.07-.054.554-.418.926-.834 1.376a19.2 19.2 0 0 1-1.775 1.67c-1.221.982-2.197 2.546-2.506 4.074-.28 1.382-.963 3.834-1.002 4.299-.04.464-.008.778.777.92.607.111.887-.021 1.285-.813.501-.996 1.364-2.524 1.617-3.077.22-.479.411-.96.702-.869.409.128.25.444.108 1.082-.118.529-.98 3.408-1.461 4.37a48.036 48.036 0 0 0-1.82 4.243c-.447 1.217-.112 1.759.618 1.98.652.199 2.737-.524 3.832-1.485 1.117-.981 2.839-2.775 3.805-4.07.976-1.312 1.726-2.288 2.285-4.825.336-1.527.908-4.887 1.246-6.926.664-3.831 2.161-16.804 2.459-20.277.397-4.628-.464-8.118-.838-9.07" fill="#FFC799"/><path d="M45.04 101.274a.743.743 0 1 0 0 1.486.743.743 0 0 0 0-1.486" fill="#E8A16B"/><path d="M69.033 125.642c-.035-4.55-.425-13.182-.426-13.216-.137-2.688-1.404-8.265-2.041-10.409 0 0-4.52 3.836-21.46 3.836-16.942 0-21.827-3.836-21.827-3.836-.636 2.144-1.538 7.721-1.675 10.409-.001.034-.391 8.666-.427 13.216-.024 3.18-.178 6.124-.07 9.001 7.96 1.423 15.752 1.54 23.333 0 .12-3.444.587-12.897.665-12.897.08 0 .545 9.453.665 12.897 7.716 1.494 15.495 1.47 23.334 0 .108-2.877-.046-5.822-.07-9" fill="#95CBEF"/><path d="M45.105 109.962c14.815 0 20.817-2.523 22.557-3.477-.385-1.803-.806-3.492-1.096-4.468 0 0-4.52 3.836-21.46 3.836-16.942 0-21.827-3.836-21.827-3.836-.294.989-.643 2.71-.949 4.539 2 1 8.31 3.406 22.775 3.406" fill="#80BFDA"/><path d="M43.605 106.126c-.026 2.665-.096 5.142-.115 7.714-.011 1.61-.143 3.392.001 4.779.1.971.277 1.756 1.614 2.172-1.059 0-1.532-.495-1.639-.597-.452-.435-.578-1.037-.67-1.596-.236-1.412-.196-3.49-.213-5.162-.025-2.477-.05-4.867-.11-7.31h1.132" fill="#80BFDA"/><path d="M44.812 111.693c-.325 0-.588.23-.588.513 0 .283.263.512.588.512.324 0 .587-.229.587-.512 0-.284-.263-.513-.587-.513" fill="#A1D5F2"/><path d="M45.105 6.341c-7.986 0-10.742 4.993-12.129 11.89-.683 3.399-.44 7.282-.49 9.837-.1 5.087 1.288 15.17 12.555 15.17 11.266 0 12.783-10.083 12.683-15.17-.05-2.555.504-6.956-.179-10.354-1.387-6.898-4.454-11.373-12.44-11.373" fill="#FFC799"/><path d="M45.035 42.28c-6.09 0-9.407-2.721-11.172-6.05 1.56 3.749 4.772 7.008 11.178 7.008 6.501 0 9.756-3.358 11.327-7.176-1.779 3.405-5.14 6.218-11.333 6.218" fill="#F8B889"/><path d="M41.868 25.266a.283.283 0 0 0 .022-.353 3.175 3.175 0 0 0-2.58-1.307c-2.01 0-3.093 1.191-3.093 1.191s.664 1.706 2.616 1.747c1.434.031 2.235-.388 3.035-1.278" fill="#FFFDFC"/><path d="M40.78 24.627c0-.273-.076-.525-.192-.752a3.039 3.039 0 0 0-.776-.23c-.011-.003-.023-.003-.034-.004a3.159 3.159 0 0 0-.447-.033c-.046 0-.09.004-.136.007a4.44 4.44 0 0 0-.37.026 6.233 6.233 0 0 0-.951.189 4.98 4.98 0 0 0-.3.107 1.662 1.662 0 0 0-.155.69 1.68 1.68 0 0 0 3.36 0" fill="#4E8793"/><path d="M40.041 24.627a.942.942 0 1 1-1.884 0 .942.942 0 0 1 1.884 0" fill="#000"/><path d="M39.519 24.09a.329.329 0 1 0 0 .659.329.329 0 0 0 0-.658" fill="#FFFDFC"/><path d="M41.932 24.947c-1.217-2.238-4.402-1.952-6.074.09 2.395-1.471 4.277-1.664 6.058-.012.04.037.05-.016.016-.078" fill="#504038"/><path d="M48.343 25.266a.283.283 0 0 1-.022-.353 3.175 3.175 0 0 1 2.58-1.307c2.01 0 3.093 1.191 3.093 1.191s-.664 1.706-2.616 1.747c-1.434.031-2.235-.388-3.035-1.278" fill="#FFFDFC"/><path d="M49.432 24.627c0-.273.075-.525.191-.752.23-.102.487-.186.776-.23.011-.003.023-.003.034-.004.142-.02.29-.033.447-.033.046 0 .09.004.136.007.129.002.25.013.37.026.336.039.656.107.951.189a4.5 4.5 0 0 1 .299.107c.096.212.156.443.156.69a1.68 1.68 0 0 1-3.36 0" fill="#4E8793"/><path d="M50.17 24.627a.942.942 0 1 0 1.883 0 .942.942 0 0 0-1.883 0" fill="#000"/><path d="M51.52 24.09a.33.33 0 1 1 0 .66.33.33 0 0 1 0-.66" fill="#FFFDFC"/><path d="M48.279 24.947c1.217-2.238 4.401-1.952 6.074.09-2.395-1.471-4.277-1.664-6.059-.012-.039.037-.05-.016-.015-.078" fill="#504038"/><path d="M30.242 27.214c.727 2.259 2.402 3.696 3.74 3.21 1.34-.485 1.835-2.71 1.108-4.968-.727-2.26-2.402-3.697-3.74-3.211-1.34.485-1.836 2.71-1.108 4.97m29.728-.001c-.728 2.259-2.403 3.696-3.741 3.21-1.34-.485-1.835-2.71-1.108-4.968.727-2.26 2.402-3.697 3.741-3.211 1.339.485 1.834 2.71 1.107 4.97" fill="#FFC799"/><path d="M31.632 22.943c.422-.05.639-.083.69.741.08 1.314.285 4.258.295 4.657.008.325-.228.578-.581.275-.517-.443-.978-1.04-1.237-2.013-.463-1.74.094-3.57.833-3.66m26.947 0c-.421-.05-.64-.083-.69.741-.08 1.314-.285 4.258-.295 4.657-.008.325.228.578.582.275.516-.443.977-1.04 1.236-2.013.463-1.74-.094-3.57-.833-3.66" fill="#E8A16B"/><path d="M41.47 22.28c1.016.18 1.89-.537.967-1.26-.732-.57-2.386-.444-3.254-.43-1 .015-2.082.02-2.952.415-.385.174-1.748.985-1.053 1.458.463.319 1.104-.27 1.454-.381.464-.148.866-.16 1.374-.153 1.132.018 2.346.142 3.464.35.22.04-.539-.1 0 0" fill="#47280E"/><g fill="#47280E"><path d="M48.875 22.311c-1.015.19-1.896-.52-.978-1.25.726-.578 2.382-.466 3.25-.46 1 .006 2.082.004 2.956.39.387.17 1.757.97 1.066 1.449-.461.322-1.107-.26-1.459-.369-.465-.143-.867-.152-1.374-.14a21.064 21.064 0 0 0-3.46.38c-.22.042.538-.105 0 0"/><path d="M37.502 10.423s-1.326-3.424.345-5.364c6.164-8.126 12.849-.139 16.506-1.064 1.783-.452 1.847-2.043 1.243-3.852 3.968 3.443 4.344 7.528 2.148 10.446.995 3.455.973 11.553.427 15.323h-.483s-.376-12.626-3.694-14.966c-4.135 2.153-11.518 3.02-16.492-.523"/></g><path d="M37.419 10.185l-.243-3.844c-6.655-2.935-7.018 11.046-5.205 19.571h.496c-.274-9.31 1.953-10.22 4.952-15.727" fill="#47280E"/><path d="M42.733 30.653c.184-.2.395-.275.449-.29.053-.017.078-.01.095.015.02.027.012.07-.012.084-.025.013-.225.085-.373.312a.826.826 0 0 0-.131.52c.009.194.152.319.331.35.193.034.363.026.658.041.169.009.337.062.445.124.196.112.328.285.81.31.48.024.63-.135.835-.227a1.07 1.07 0 0 1 .456-.078c.296.015.463.04.658.025.181-.013.337-.122.365-.314a.824.824 0 0 0-.078-.531c-.124-.241-.316-.332-.339-.348-.023-.016-.026-.06-.003-.085.02-.022.044-.027.096-.006.051.021.255.118.416.334.14.186.215.46.184.7a.781.781 0 0 1-.185.403.644.644 0 0 1-.468.205c-.355-.007-.456-.022-.692-.034-.14-.007-.32.076-.492.174-.129.073-.37.189-.773.168-.403-.02-.632-.159-.753-.245-.16-.115-.331-.216-.472-.223-.236-.012-.337-.008-.692-.037a.642.642 0 0 1-.445-.25.78.78 0 0 1-.143-.42 1.014 1.014 0 0 1 .253-.677" fill="#E8A16B"/><path d="M49.635 35.111s-2.423 2.325-5.837 1.446c-2.143-.552-3.169-1.47-3.169-1.47s2.058-.723 4.225-.595c2.096.124 3.934.706 4.781.62" fill="#FF867B"/><path d="M69.622 78.793c-.213 0-.259-3.691-.926-8.174a79.43 79.43 0 0 0-1.046-5.706c-.316-1.453-.548-2.344-.462-2.375.087-.033.482.817.92 2.255.446 1.435.916 3.461 1.25 5.73.334 2.267.447 4.344.443 5.844.013.75-.03 1.357-.059 1.777-.033.418-.074.65-.12.65m-49.647-.001c.214 0 .259-3.691.927-8.174a79.87 79.87 0 0 1 1.044-5.706c.317-1.453.55-2.344.463-2.375-.087-.033-.482.817-.92 2.255-.446 1.435-.916 3.461-1.25 5.73a40.619 40.619 0 0 0-.443 5.844c-.013.75.03 1.357.059 1.777.033.418.074.65.12.65" fill="#E8A16B"/></g></svg>