<svg width="89" height="223" viewBox="0 0 89 223" xmlns="http://www.w3.org/2000/svg"><title>8C17B356-4766-41CA-AFA8-78B4B46DDAED</title><g fill="none" fill-rule="evenodd"><path d="M81.677 86.299c-1.124-3.155-.493-9.585-2.156-17.376-.774-3.627-2.167-9.753-4.052-14.62-3.471-8.968-19.043-11.554-20.736-13.483-1.695-1.93-.475-3.938-.475-3.938h-18.88s1.219 2.009-.476 3.938c-1.694 1.929-17.265 4.515-20.736 13.483-1.885 4.867-3.278 10.993-4.052 14.62C8.45 76.714 9.082 83.143 7.958 86.3c-.339.951-1.117 4.44-.758 9.07.27 3.472 3.134 16.799 3.734 20.63.307 2.039.823 5.399 1.128 6.926.505 2.537 1.184 3.514 2.067 4.824.874 1.296 2.43 3.09 3.442 4.071.99.961 1.366 1.33 1.957 1.131.66-.221.963-.763.56-1.98a51.117 51.117 0 0 0-1.647-4.243c-.435-.962-1.216-3.841-1.322-4.37-.128-.638-.272-.954.098-1.082.262-.09.434.39.633.87.23.552 1.01 2.08 1.464 3.076.36.792.613.924 1.163.814.71-.143.74-.457.703-.921-.036-.465-.654-2.917-.907-4.3-.279-1.527-1.162-3.091-2.267-4.073a18.244 18.244 0 0 1-1.606-1.67c-.376-.45-.706-.822-.755-1.376-.364-3.678-.05-7.272.497-10.07.694-3.55 2.313-10.034 2.773-15.894.197-2.523 2.789-11.315 2.789-11.315s3.052 17.503 3.448 25.6c.145 2.968-.885 6.297-1.1 10.355 0 .03-.523 10.638-.415 14.5.28 9.958 1.763 16.484 3.32 26.113.742 4.589.32 18.256.32 23.306 0 17.655 4.257 18.693 4.68 36.962.06 2.586-1.035 4.183-2.55 5.916-.88 1.005-1.665 1.494-1.665 2.57 0 .758.58 1.118 1.119 1.118h10.228c.607 0 1.386-.459 1.407-1.36.036-1.487-.735-2.591-1.08-3.616-.396-1.178-.552-2.375-.632-3.57-.76-22.308 1.967-24.795 2.157-37.685.117-7.917-.648-8.085.483-18.444.215-1.974.451-7.852.72-9.857a178.88 178.88 0 0 0 1.542-27.774c.229.043.737.064 1.06.064h.143c.323 0 .831-.02 1.06-.064-.21 8.737.264 18.291 1.541 27.774.27 2.005.506 7.883.721 9.857 1.13 10.36.366 10.527.483 18.444.19 12.89 2.917 15.377 2.157 37.685-.08 1.195-.236 2.392-.632 3.57-.345 1.025-1.116 2.129-1.08 3.615.021.902.8 1.361 1.407 1.361h10.228c.54 0 1.119-.36 1.119-1.118 0-1.076-.785-1.565-1.664-2.57-1.516-1.733-2.611-3.33-2.551-5.916.423-18.269 4.68-19.307 4.68-36.962 0-5.05-.422-18.717.32-23.306 1.557-9.629 3.04-16.155 3.32-26.114.108-3.861-.415-14.47-.416-14.5-.214-4.057-1.244-7.386-1.099-10.354.396-8.097 3.448-25.6 3.448-25.6s2.592 8.792 2.79 11.315c.46 5.86 2.078 12.345 2.772 15.895.547 2.797.861 6.39.497 10.07-.05.553-.379.925-.755 1.375-.342.41-1.032 1.16-1.606 1.67-1.105.982-1.988 2.546-2.267 4.074-.253 1.382-.871 3.834-.907 4.299-.036.464-.007.778.703.92.55.111.803-.021 1.163-.813.453-.996 1.234-2.524 1.463-3.077.2-.479.372-.96.634-.869.37.128.226.444.098 1.082-.106.529-.887 3.408-1.322 4.37a51.117 51.117 0 0 0-1.646 4.243c-.404 1.217-.101 1.759.559 1.98.59.199.967-.17 1.957-1.13 1.011-.982 2.568-2.776 3.442-4.072.883-1.31 1.562-2.287 2.067-4.824.304-1.527.821-4.887 1.128-6.926.6-3.831 3.465-17.158 3.734-20.63.359-4.63-.42-8.119-.758-9.07" fill="#FCB686"/><path d="M45.384 70.722c.448 2.41 2.095 3.89 4.84 4.545 2.909.695 6.323.792 9.302.392 3.082-.413 5.533-1.845 6.845-4.297 1.02-1.904 1.335-4.008 1.646-6.065.009 2.24-.262 4.63-1.326 6.696-1.368 2.654-4.168 4.03-7.444 4.404-5.017.574-13.684.009-13.863-5.675m-1.137 0c-.156 2.55-1.864 4.24-4.666 5.039-2.898.827-6.395.993-9.405.61-3.205-.407-5.896-1.783-7.24-4.378-1.069-2.063-1.334-4.459-1.326-6.696.31 2.057.626 4.16 1.646 6.065 1.347 2.517 3.876 3.932 7.036 4.321 2.983.368 6.396.273 9.294-.461 2.71-.686 4.157-2.167 4.661-4.5m.567 27.827a.743.743 0 1 0 0 1.486.743.743 0 0 0 0-1.486" fill="#F4995B"/><path fill="#80BFDA" d="M64.613 102.202h-39.56l-.469 3.93h40.498l-.469-3.93"/><path d="M66.465 126.777c-.033-3.976-.386-11.52-.386-11.55-.124-2.348-.45-7.222-1.026-9.095H24.582c-.576 1.873-.903 6.747-1.026 9.096 0 .03-.354 7.573-.386 11.55-.022 2.777-.162 5.35-.064 7.865h21.11c.108-3.01.53-11.27.601-11.27.072 0 .494 8.26.602 11.27h21.11c.098-2.514-.042-5.088-.064-7.866" fill="#95CBEF"/><path d="M43.317 106.126c-.026 2.665-.096 5.142-.115 7.714-.012 1.61-.143 3.392 0 4.779.101.971.278 1.756 1.615 2.172-1.06 0-1.532-.495-1.639-.597-.452-.435-.578-1.037-.67-1.596-.236-1.412-.196-3.49-.213-5.162a514.412 514.412 0 0 0-.11-7.31h1.132" fill="#80BFDA"/><path d="M44.524 111.693c-.325 0-.588.23-.588.513 0 .283.263.512.588.512.324 0 .587-.229.587-.512 0-.284-.263-.513-.587-.513" fill="#A1D5F2"/><path d="M44.817 6.341c-7.985 0-10.742 4.865-12.129 11.586-.683 3.311-.439 7.095-.49 9.584-.1 4.957-.05 6.46 5.583 12.486 2.691 2.88 4.836 3.329 7.036 3.329 2.2 0 4.346-.45 7.037-3.33 5.632-6.024 5.682-7.528 5.582-12.485-.05-2.489.504-6.778-.179-10.088C55.87 10.7 52.803 6.34 44.817 6.34" fill="#FFC799"/><path d="M52.097 38.849c-2.786 2.879-5.006 3.328-7.282 3.328-2.277 0-4.496-.45-7.281-3.328-2.756-2.848-4.22-4.687-4.987-6.356.566 2.017 1.952 3.993 5.234 7.504 2.691 2.88 4.836 3.329 7.036 3.329 2.2 0 4.346-.45 7.037-3.33 3.297-3.526 4.68-5.504 5.242-7.532-.764 1.678-2.228 3.52-5 6.385" fill="#F4995B"/><path d="M41.58 25.266a.283.283 0 0 0 .022-.353 3.175 3.175 0 0 0-2.58-1.307c-2.01 0-3.093 1.191-3.093 1.191s.664 1.706 2.616 1.747c1.434.031 2.235-.388 3.035-1.278" fill="#FFFDFC"/><path d="M40.491 24.627c0-.273-.075-.525-.191-.752a3.039 3.039 0 0 0-.776-.23c-.011-.003-.023-.003-.034-.004a3.159 3.159 0 0 0-.447-.033c-.046 0-.09.004-.136.007a4.44 4.44 0 0 0-.37.026 6.233 6.233 0 0 0-.951.189 4.5 4.5 0 0 0-.299.107 1.662 1.662 0 0 0-.156.69 1.68 1.68 0 0 0 3.36 0" fill="#4E8793"/><path d="M39.753 24.627a.942.942 0 1 1-1.883 0 .942.942 0 0 1 1.883 0" fill="#000"/><path d="M39.23 24.09a.33.33 0 1 0 .001.66.33.33 0 0 0 0-.66" fill="#FFFDFC"/><path d="M41.644 24.947c-1.217-2.238-4.402-1.952-6.074.09 2.395-1.471 4.277-1.664 6.059-.012.039.037.048-.016.015-.078" fill="#504038"/><path d="M48.055 25.266a.283.283 0 0 1-.022-.353 3.175 3.175 0 0 1 2.58-1.307c2.01 0 3.093 1.191 3.093 1.191s-.664 1.706-2.616 1.747c-1.434.031-2.236-.388-3.035-1.278" fill="#FFFDFC"/><path d="M49.143 24.627c0-.273.076-.525.192-.752.23-.102.487-.186.776-.23.011-.003.023-.003.034-.004.142-.02.29-.033.447-.033.046 0 .09.004.136.007.128.002.25.013.37.026.336.039.656.107.951.189.105.033.204.07.299.107.096.212.156.443.156.69a1.68 1.68 0 0 1-3.361 0" fill="#4E8793"/><path d="M49.882 24.627a.942.942 0 1 0 1.883 0 .942.942 0 0 0-1.883 0" fill="#000"/><path d="M51.232 24.09a.33.33 0 1 1 0 .66.33.33 0 0 1 0-.66" fill="#FFFDFC"/><path d="M47.991 24.947c1.217-2.238 4.402-1.952 6.074.09-2.395-1.471-4.277-1.664-6.059-.012-.039.037-.049-.016-.015-.078" fill="#504038"/><path d="M29.954 27.214c.727 2.259 2.402 3.696 3.74 3.21 1.34-.485 1.835-2.71 1.108-4.968-.727-2.26-2.402-3.697-3.74-3.211-1.34.485-1.835 2.71-1.108 4.97m29.727-.001c-.727 2.259-2.402 3.696-3.74 3.21-1.34-.485-1.835-2.71-1.108-4.968.727-2.26 2.402-3.697 3.74-3.211 1.34.485 1.835 2.71 1.108 4.97" fill="#FFC799"/><path d="M31.344 22.943c.421-.05.639-.083.69.741.08 1.314.285 4.258.295 4.657.008.325-.228.578-.582.275-.516-.443-.977-1.04-1.236-2.013-.463-1.74.094-3.57.833-3.66m26.946 0c-.42-.05-.638-.083-.688.741-.08 1.314-.286 4.258-.296 4.657-.008.325.228.578.581.275.516-.443.978-1.04 1.237-2.013.463-1.74-.094-3.57-.834-3.66" fill="#F4995B"/><path d="M41.181 22.28c1.017.18 1.891-.537.968-1.26-.731-.57-2.386-.444-3.254-.43-1 .015-2.082.02-2.953.415-.385.174-1.747.985-1.052 1.458.463.319 1.104-.27 1.454-.381.464-.148.866-.16 1.374-.153 1.132.018 2.346.142 3.463.35.22.04-.539-.1 0 0" fill="#47280E"/><g fill="#47280E"><path d="M48.587 22.311c-1.015.19-1.895-.52-.978-1.25.726-.578 2.382-.466 3.25-.46 1 .006 2.082.004 2.956.39.386.17 1.757.97 1.065 1.449-.46.322-1.106-.26-1.457-.369-.466-.143-.867-.152-1.375-.14a21.064 21.064 0 0 0-3.46.38c-.22.042.537-.105 0 0"/><path d="M37.214 10.423s-1.326-3.424.345-5.364c6.164-8.126 12.849-.139 16.506-1.064 1.783-.452 1.846-2.043 1.243-3.852 3.968 3.443 4.343 7.528 2.148 10.446.995 3.455.972 11.553.427 15.323H57.4s-.377-12.626-3.694-14.966c-4.135 2.153-11.518 3.02-16.492-.523"/></g><path d="M37.131 10.185l-.243-3.844c-6.654-2.935-7.018 11.046-5.204 19.571h.495c-.274-9.31 1.953-10.22 4.952-15.727" fill="#47280E"/><path d="M42.445 30.653c.184-.2.395-.275.449-.29.054-.017.078-.01.095.015.02.027.012.07-.013.084-.024.013-.224.085-.372.312a.826.826 0 0 0-.131.52c.009.194.152.319.331.35.193.034.362.026.658.041.169.009.337.062.445.124.196.112.328.285.81.31.48.024.63-.135.835-.227.114-.05.286-.086.456-.078.295.015.463.04.659.025.18-.013.336-.122.364-.314a.824.824 0 0 0-.078-.531c-.124-.241-.316-.332-.339-.348-.023-.016-.025-.06-.003-.085.02-.022.044-.027.096-.006.051.021.255.118.416.334.14.186.215.46.184.7a.781.781 0 0 1-.185.403.644.644 0 0 1-.468.205c-.355-.007-.455-.022-.692-.034-.14-.007-.32.076-.492.174a1.349 1.349 0 0 1-.774.168 1.35 1.35 0 0 1-.752-.245c-.16-.115-.331-.216-.472-.223-.236-.012-.338-.008-.692-.037a.642.642 0 0 1-.445-.25.78.78 0 0 1-.143-.42 1.01 1.01 0 0 1 .253-.677" fill="#F4995B"/><path d="M50.413 34.763s-2.369 3.161-6.523 2.617c-2.557-.334-4.407-2.304-4.407-2.304s2.295-1.427 4.851-1.093c2.557.334 5.072.884 6.079.78" fill="#FF867B"/><path d="M49.347 35.111s-2.466 1.853-5.88.974c-2.143-.552-3.125-.999-3.125-.999s2.057-.722 4.224-.594c2.096.124 3.934.706 4.781.62" fill="#FFF"/></g></svg>