<?xml version='1.0' encoding='iso-8859-1'?>
<svg version="1.1" xmlns="http://www.w3.org/2000/svg" viewBox="0 0 511 511" xmlns:xlink="http://www.w3.org/1999/xlink" enable-background="new 0 0 511 511">
  <g>
    <path d="M399.5,0h-288C89.72,0,72,17.72,72,39.5v432c0,21.78,17.72,39.5,39.5,39.5h288c21.78,0,39.5-17.72,39.5-39.5v-432   C439,17.72,421.28,0,399.5,0z M424,471.5c0,13.509-10.991,24.5-24.5,24.5h-288C97.991,496,87,485.009,87,471.5v-432   C87,25.991,97.991,15,111.5,15h288c13.509,0,24.5,10.991,24.5,24.5V471.5z"/>
    <path d="m373.5,64h-236c-5.238,0-9.5,4.262-9.5,9.5v76c0,5.238 4.262,9.5 9.5,9.5h236c5.238,0 9.5-4.262 9.5-9.5v-76c0-5.238-4.262-9.5-9.5-9.5zm-5.5,80h-225v-65h225v65z"/>
    <path d="m373.5,192h-236c-5.238,0-9.5,4.262-9.5,9.5v236c0,5.238 4.262,9.5 9.5,9.5h236c5.238,0 9.5-4.262 9.5-9.5v-236c0-5.238-4.262-9.5-9.5-9.5zm-150.5,160v-65h65v65h-65zm65,15v65h-65v-65h65zm-145-80h65v65h-65v-65zm80-15v-65h65v65h-65zm80,15h65v65h-65v-65zm65-15h-65v-65h65v65zm-160-65v65h-65v-65h65zm-65,160h65v65h-65v-65zm160,65v-65h65v65h-65z"/>
    <path d="m279.5,127c4.142,0 7.5-3.358 7.5-7.5v-16c0-4.142-3.358-7.5-7.5-7.5s-7.5,3.358-7.5,7.5v16c0,4.142 3.358,7.5 7.5,7.5z"/>
    <path d="m311.5,127c4.142,0 7.5-3.358 7.5-7.5v-16c0-4.142-3.358-7.5-7.5-7.5s-7.5,3.358-7.5,7.5v16c0,4.142 3.358,7.5 7.5,7.5z"/>
    <path d="m343.5,127c4.142,0 7.5-3.358 7.5-7.5v-16c0-4.142-3.358-7.5-7.5-7.5s-7.5,3.358-7.5,7.5v16c0,4.142 3.358,7.5 7.5,7.5z"/>
  </g>
</svg>
