<svg xmlns="http://www.w3.org/2000/svg" xmlns:xlink="http://www.w3.org/1999/xlink" width="90" height="90" viewBox="0 0 90 90">
    <defs>
        <linearGradient id="prefix__b" x1="45.061%" x2="58.951%" y1="100%" y2="10.086%">
            <stop offset="0%" stop-color="#FFF" stop-opacity="0"/>
            <stop offset="100%" stop-color="#34A1B5"/>
        </linearGradient>
        <linearGradient id="prefix__c" x1="40.631%" x2="48.245%" y1="119.371%" y2="65.102%">
            <stop offset="0%" stop-color="#FFF" stop-opacity=".5"/>
            <stop offset="100%" stop-color="#FFF" stop-opacity="0"/>
        </linearGradient>
        <path id="prefix__a" d="M59.51 7.083v69.45c0 3.664-2.958 6.662-6.574 6.662H29.21V.42h23.726c3.616 0 6.574 2.998 6.574 6.662z"/>
        <path id="prefix__d" d="M30.612 6.927v69.45c0 3.664-2.958 6.661-6.574 6.661H.312V.264h23.726c3.616 0 6.574 2.998 6.574 6.663z"/>
    </defs>
    <g fill="none">
        <g transform="translate(13 2) translate(.103 .156)">
            <use fill="#79C6D1" xlink:href="#prefix__a"/>
            <use fill="url(#prefix__b)" xlink:href="#prefix__a"/>
            <use fill="url(#prefix__c)" xlink:href="#prefix__a"/>
            <g transform="matrix(-1 0 0 1 30.924 0)">
                <use fill="#79C6D1" xlink:href="#prefix__d"/>
                <use fill="url(#prefix__b)" xlink:href="#prefix__d"/>
                <use fill="url(#prefix__c)" xlink:href="#prefix__d"/>
            </g>
            <g>
                <path fill="#F4F1F1" d="M8.438 11.142H2.453c-1.345 0-2.436-1.105-2.436-2.469V2.607c0-1.363 1.09-2.469 2.436-2.469h5.985c1.346 0 2.436 1.106 2.436 2.47v6.065c0 1.364-1.09 2.47-2.436 2.47z" transform="translate(6.409 27.746)"/>
                <path fill="#FFF" d="M25.794 11.142h-5.985c-1.345 0-2.436-1.105-2.436-2.469V2.607c0-1.363 1.09-2.469 2.436-2.469h5.985c1.345 0 2.436 1.106 2.436 2.47v6.065c0 1.364-1.09 2.47-2.436 2.47zM43.15 11.142h-5.985c-1.345 0-2.436-1.105-2.436-2.469V2.607c0-1.363 1.09-2.469 2.436-2.469h5.985c1.345 0 2.436 1.106 2.436 2.47v6.065c0 1.364-1.09 2.47-2.436 2.47z" transform="translate(6.409 27.746)"/>
                <path fill="#F4F1F1" d="M8.438 28.464H2.453c-1.345 0-2.436-1.105-2.436-2.469V19.93c0-1.364 1.09-2.47 2.436-2.47h5.985c1.346 0 2.436 1.106 2.436 2.47v6.065c0 1.364-1.09 2.47-2.436 2.47z" transform="translate(6.409 27.746)"/>
                <path fill="#FFF" d="M25.794 28.464h-5.985c-1.345 0-2.436-1.105-2.436-2.469V19.93c0-1.364 1.09-2.47 2.436-2.47h5.985c1.345 0 2.436 1.106 2.436 2.47v6.065c0 1.364-1.09 2.47-2.436 2.47z" transform="translate(6.409 27.746)"/>
                <g fill="#FFF">
                    <path d="M5.43 37.252v6.067c0 1.361-1.092 2.467-2.437 2.467H0V34.783h2.993c1.345 0 2.436 1.105 2.436 2.469zM5.43 2.607v6.066c0 1.364-1.092 2.47-2.437 2.47H0V.138h2.993c1.345 0 2.436 1.106 2.436 2.468zM5.43 19.93v6.065c0 1.364-1.092 2.47-2.437 2.47H0V17.46h2.993c1.345 0 2.436 1.106 2.436 2.47zM20.348 28.464h-5.985c-1.345 0-2.436-1.105-2.436-2.469V19.93c0-1.364 1.09-2.47 2.436-2.47h5.985c1.346 0 2.436 1.106 2.436 2.47v6.065c0 1.364-1.09 2.47-2.436 2.47z" transform="translate(6.409 27.746) translate(22.802)"/>
                </g>
                <g>
                    <path fill="#F4F1F1" d="M8.438 11.018H2.453C1.108 11.018.017 9.913.017 8.55V2.484c0-1.364 1.09-2.47 2.436-2.47h5.985c1.346 0 2.436 1.106 2.436 2.47v6.065c0 1.364-1.09 2.47-2.436 2.47z" transform="translate(6.409 27.746) translate(0 34.768)"/>
                    <path fill="#FFF" d="M43.15 11.018h-5.985c-1.345 0-2.436-1.105-2.436-2.469V2.484c0-1.364 1.09-2.47 2.436-2.47h5.985c1.345 0 2.436 1.106 2.436 2.47v6.065c0 1.364-1.09 2.47-2.436 2.47z" transform="translate(6.409 27.746) translate(0 34.768)"/>
                </g>
            </g>
            <g fill="#FFF">
                <path d="M0.103 0.09L48.183 0.09 48.183 12.641 0.103 12.641z" transform="matrix(-1 0 0 1 53.353 8.39)"/>
                <path d="M24.143 0.09L48.183 0.09 48.183 12.641 24.143 12.641z" transform="matrix(-1 0 0 1 53.353 8.39)"/>
            </g>
        </g>
        <path fill="#FFF" d="M32.305 73.689H26.32c-1.345 0-2.436-1.106-2.436-2.47v-6.065c0-1.363 1.09-2.469 2.436-2.469h5.985c1.346 0 2.436 1.105 2.436 2.47v6.065c0 1.363-1.09 2.469-2.436 2.469z" transform="translate(13 2)"/>
    </g>
</svg>
