<svg width="105" height="125" viewBox="0 0 105 125" xmlns="http://www.w3.org/2000/svg" xmlns:xlink="http://www.w3.org/1999/xlink"><title>6578518A-1FC3-4145-9805-66E71BD3C843</title><defs><circle id="a" cx="52.5" cy="52.5" r="52.5"/></defs><g fill="none" fill-rule="evenodd"><g transform="translate(0 20)"><mask id="b" fill="#fff"><use xlink:href="#a"/></mask><use fill="#78D2E2" xlink:href="#a"/><g mask="url(#b)"><path d="M28.064 40.71s-9.842-4.663-12.368-15.184c-3.582-14.921.386-29.282 8.183-27.968 3.815 6.716 5.957 8.253 5.957 8.253s-3.28 27.937-1.772 34.898" fill="#694829"/><path d="M83.462 21.112c0-19.166-13.695-34.704-30.587-34.704-16.889 0-30.583 15.538-30.583 34.704 0 19.165 13.694 34.702 30.583 34.702 16.892 0 30.587-15.537 30.587-34.702" fill="#FADEB4"/><path fill="#FADEB4" d="M44.895 67.06h14.656V49.126H44.895z"/><path d="M52.222 64.569c-20.89 0-37.831 18.113-37.831 41.31h75.665c0-23.197-16.943-41.31-37.834-41.31" fill="#FADEB4"/><path d="M45.362 17.968c-.02-.02-.565-.578-1.522-1.138-.957-.56-2.333-1.126-4.003-1.126-1.67-.003-3.617.576-5.655 2.228l.56.687c1.909-1.54 3.63-2.028 5.095-2.03 1.465 0 2.69.498 3.554 1.004a7.658 7.658 0 0 1 1.254.915l.062.06.017.016.638-.616" fill="#694829"/><path d="M40.993 22.016c0-.682-.552-1.235-1.239-1.235a1.235 1.235 0 1 0 0 2.47c.687 0 1.239-.553 1.239-1.235" fill="#1B1A18"/><path d="M39.754 21.224a.795.795 0 0 0-.795.792.795.795 0 0 0 1.59 0 .794.794 0 0 0-.795-.792zm0 2.47a1.682 1.682 0 0 1-1.682-1.678 1.681 1.681 0 0 1 3.364 0c0 .925-.755 1.678-1.682 1.678z" fill="#1B1A18"/><path d="M61.026 18.584l.017-.016c.099-.098.632-.6 1.483-1.07.851-.47 2.014-.91 3.388-.909 1.465.002 3.185.49 5.094 2.03l.56-.687c-2.038-1.652-3.984-2.23-5.654-2.228-1.67 0-3.047.566-4.003 1.126-.958.56-1.503 1.118-1.522 1.138l.637.616" fill="#694829"/><path d="M67.238 22.016c0-.682-.552-1.235-1.239-1.235a1.236 1.236 0 1 0 0 2.47c.687 0 1.239-.553 1.239-1.235" fill="#1B1A18"/><path d="M66 21.224a.794.794 0 0 0-.796.792.794.794 0 0 0 1.59 0 .794.794 0 0 0-.795-.792zm0 2.47a1.683 1.683 0 0 1-1.684-1.678 1.683 1.683 0 0 1 3.366 0c0 .925-.755 1.678-1.683 1.678z" fill="#1B1A18"/><path d="M52.764 46.124c3.503 0 6.345-2.424 6.345-5.415H46.42c0 2.991 2.84 5.415 6.343 5.415" fill="#FFF"/><path d="M17.297 26.422c-.477-4.686 2.082-8.88 5.717-9.37 3.633-.489 6.967 2.913 7.444 7.596.479 4.686-2.082 8.88-5.712 9.37-3.635.492-6.969-2.911-7.45-7.596m64.343 7.612c-3.622-.401-6.067-4.535-5.454-9.23.606-4.698 4.036-8.186 7.659-7.786 3.619.4 6.061 4.533 5.452 9.23-.61 4.7-4.036 8.184-7.657 7.786" fill="#FADEB4"/><path d="M30.527 6.143s10.174 7.766 29.732 7.766c19.556 0 33.452-17.975 29.13-33.167-6.297 5.617-19.861 6.729-31.2 2.763-11.338-3.966-23.133-3.966-30.496 1.983-7.362 5.949-4.653 16.024 2.834 20.655" fill="#694829"/><path d="M32.1 6.928s-7.224 12.989-4.903 22.183c-5.636-7.216-7.356-17.701-7.356-17.701l4.32-13.364L32.1 6.928m40.26-.418s8.387 3.113 7.638 16.637c8.264-9.43 4.206-20.656 4.206-20.656L80.3-2.37l-7.94 8.882" fill="#694829"/><path d="M62.635 66.138c-.836 4.484-5.172 7.906-10.413 7.906-5.24 0-9.577-3.422-10.412-7.906-15.827 4.86-27.42 20.556-27.42 39.74h75.666c0-19.184-11.593-34.88-27.421-39.74" fill="#293541"/></g></g><path d="M28.064 60.71s-9.842-4.663-12.368-15.184c-3.582-14.921.386-29.282 8.183-27.968 3.815 6.716 5.957 8.253 5.957 8.253s-3.28 27.937-1.772 34.898" fill="#694829"/><path d="M83.462 41.112c0-19.166-13.695-34.704-30.587-34.704-16.889 0-30.583 15.538-30.583 34.704 0 19.165 13.694 34.702 30.583 34.702 16.892 0 30.587-15.537 30.587-34.702" fill="#FADEB4"/><path fill="#FADEB4" d="M44.895 87.06h14.656V69.126H44.895zM17.297 46.422c-.477-4.686 2.082-8.88 5.717-9.37 3.633-.489 6.967 2.913 7.444 7.596.479 4.686-2.082 8.88-5.712 9.37-3.635.492-6.969-2.911-7.45-7.596m64.343 7.612c-3.622-.401-6.067-4.535-5.454-9.23.606-4.698 4.036-8.186 7.659-7.786 3.619.4 6.061 4.533 5.452 9.23-.61 4.7-4.036 8.184-7.657 7.786"/><path d="M30.527 26.143s10.174 7.766 29.732 7.766c19.556 0 33.452-17.975 29.13-33.167-6.297 5.617-19.861 6.729-31.2 2.763C46.852-.46 35.057-.46 27.694 5.488c-7.362 5.949-4.653 16.024 2.834 20.655" fill="#694829"/><path d="M32.1 26.928s-7.224 12.989-4.903 22.183c-5.636-7.216-7.356-17.701-7.356-17.701l4.32-13.364 7.939 8.882m40.26-.418s8.387 3.113 7.638 16.637c8.264-9.43 4.206-20.656 4.206-20.656L80.3 17.63l-7.94 8.882" fill="#694829"/></g></svg>