<svg width="105" height="125" viewBox="0 0 105 125" xmlns="http://www.w3.org/2000/svg" xmlns:xlink="http://www.w3.org/1999/xlink"><title>39E9907D-6A47-44CA-B6B4-7FD0528EAEC5</title><defs><circle id="a" cx="52.5" cy="52.5" r="52.5"/></defs><g fill="none" fill-rule="evenodd"><g transform="translate(0 20)"><mask id="b" fill="#fff"><use xlink:href="#a"/></mask><use fill="#FF7B7B" xlink:href="#a"/><g mask="url(#b)"><path d="M28.814 104.472h47.17c6.766-6.303 11.002-15.276 11.002-25.243V14.726c0-19.068-15.483-34.526-34.587-34.526-19.102 0-34.586 15.458-34.586 34.526v64.503c0 9.967 4.235 18.94 11.001 25.243" fill="#674628"/><path d="M77.635 30.494c0-15.698-11.298-28.425-25.236-28.425-13.936 0-25.234 12.727-25.234 28.425s11.298 28.424 25.234 28.424c13.938 0 25.236-12.726 25.236-28.424" fill="#FADEB4"/><path fill="#FADEB4" d="M45.59 68.355h13.62v-21.81H45.59z"/><path d="M52.399 66.036c-17.456 0-31.61 16.854-31.61 38.436h63.222c0-21.582-14.156-38.436-31.612-38.436" fill="#FADEB4"/><path d="M46.126 25.736c-.018-.019-.524-.538-1.414-1.06-.888-.52-2.168-1.046-3.72-1.047-1.552-.002-3.36.536-5.254 2.074l.52.64c1.774-1.435 3.373-1.888 4.734-1.89 1.361-.001 2.5.464 3.302.934a7.18 7.18 0 0 1 1.166.851l.059.056.014.015.593-.573" fill="#674628"/><path d="M42.065 29.503c0-.635-.512-1.15-1.15-1.15a1.15 1.15 0 1 0 0 2.3c.638 0 1.15-.516 1.15-1.15" fill="#1B1A18"/><path d="M40.914 28.766a.74.74 0 0 0-.74.737.74.74 0 0 0 1.478 0 .739.739 0 0 0-.738-.737zm0 2.298c-.862 0-1.565-.7-1.565-1.56a1.565 1.565 0 0 1 3.129 0c0 .86-.702 1.56-1.564 1.56z" fill="#1B1A18"/><path d="M60.685 26.309l.014-.015c.093-.09.588-.557 1.379-.995.791-.439 1.872-.846 3.148-.846 1.362.002 2.96.455 4.734 1.89l.52-.64c-1.893-1.538-3.702-2.076-5.254-2.074-1.552 0-2.831.526-3.72 1.047-.89.522-1.395 1.041-1.414 1.06l.593.573" fill="#674628"/><path d="M66.456 29.503a1.15 1.15 0 0 0-1.152-1.15 1.15 1.15 0 1 0 0 2.3 1.15 1.15 0 0 0 1.152-1.15" fill="#1B1A18"/><path d="M65.304 28.766a.739.739 0 0 0-.738.737.739.739 0 0 0 1.477 0 .74.74 0 0 0-.74-.737zm0 2.298c-.862 0-1.564-.7-1.564-1.56a1.564 1.564 0 0 1 3.129 0c0 .86-.702 1.56-1.565 1.56z" fill="#1B1A18"/><path d="M46.9 46.218h10.999s-1.936 4.397-5.5 4.397c-3.494 0-5.5-4.397-5.5-4.397" fill="#DB3935"/><path d="M48.65 46.918h7.496s-1.318 2.684-3.747 2.684c-2.38 0-3.748-2.684-3.748-2.684" fill="#FFF"/><path d="M76.69 39.789c-2.96-.33-4.96-3.714-4.46-7.557.496-3.845 3.3-6.7 6.263-6.373 2.959.328 4.955 3.71 4.455 7.556-.496 3.847-3.298 6.7-6.258 6.374m-54.838-6.374c-.5-3.845 1.496-7.228 4.454-7.556 2.963-.326 5.767 2.528 6.264 6.373.5 3.843-1.5 7.228-4.459 7.557-2.962.325-5.763-2.527-6.26-6.374" fill="#FADEB4"/><path d="M27.631 26.872s17.353-5.74 21.255-16.808c7.26 7.481 18.988 13.08 30.597 14.014.883-21.89-10.157-35.903-33.235-31.644-16.665 3.075-25.393 20.09-18.617 34.438" fill="#674628"/><path d="M63.276 68.333A11.114 11.114 0 0 1 52.4 77.135a11.114 11.114 0 0 1-10.877-8.802c-12.099 5.31-20.733 19.282-20.733 36.139h63.222c0-16.857-8.636-30.828-20.735-36.139" fill="#3FA4B7"/></g></g><path d="M86.986 102.04V35.706C86.986 16.097 71.503.2 52.399.2 33.297.2 17.813 16.097 17.813 35.706" fill="#674628"/><path d="M77.635 50.494c0-15.698-11.298-28.425-25.236-28.425-13.936 0-25.234 12.727-25.234 28.425s11.298 28.424 25.234 28.424c13.938 0 25.236-12.726 25.236-28.424" fill="#FADEB4"/><path fill="#FADEB4" d="M45.59 88.355h13.62v-21.81H45.59zm31.1-28.566c-2.96-.33-4.96-3.714-4.46-7.557.496-3.845 3.3-6.7 6.263-6.373 2.959.328 4.955 3.71 4.455 7.556-.496 3.847-3.298 6.7-6.258 6.374m-54.838-6.374c-.5-3.845 1.496-7.228 4.454-7.556 2.963-.326 5.767 2.528 6.264 6.373.5 3.843-1.5 7.228-4.459 7.557-2.962.325-5.763-2.527-6.26-6.374"/><path d="M27.631 46.872s17.353-5.74 21.255-16.808c7.26 7.481 18.988 13.08 30.597 14.014.883-21.89-10.157-35.903-33.235-31.644-16.665 3.075-25.393 20.09-18.617 34.438" fill="#674628"/></g></svg>