<?xml version="1.0" encoding="UTF-8"?>
<svg xmlns="http://www.w3.org/2000/svg" xmlns:xlink="http://www.w3.org/1999/xlink" width="96pt" height="96pt" viewBox="0 0 96 96" version="1.1">
<g id="surface2202822">
<path style=" stroke:none;fill-rule:nonzero;fill:rgb(100%,100%,100%);fill-opacity:1;" d="M 48 8 C 25.90625 8 8 25.90625 8 48 C 8 70.09375 25.90625 88 48 88 C 70.09375 88 88 70.09375 88 48 C 88 25.90625 70.09375 8 48 8 Z M 48 68 C 45.792969 68 44 66.207031 44 64 L 44 48 C 44 45.792969 45.792969 44 48 44 C 50.207031 44 52 45.792969 52 48 L 52 64 C 52 66.207031 50.207031 68 48 68 Z M 50 36 L 46 36 C 44.894531 36 44 35.105469 44 34 L 44 30 C 44 28.894531 44.894531 28 46 28 L 50 28 C 51.105469 28 52 28.894531 52 30 L 52 34 C 52 35.105469 51.105469 36 50 36 Z M 50 36 "/>
</g>
</svg>
