<svg xmlns="http://www.w3.org/2000/svg" width="15" height="15" viewBox="0 0 15 15">
    <path fill="#7F7F7F" d="M5.463 11.17v.465c0 .123-.106.232-.227.232h-.454c-.121 0-.228-.109-.228-.232v-.464c0-.124.107-.233.228-.233h.454c.12 0 .227.11.227.233zm0-1.857v.465c0 .123-.106.232-.227.232h-.454c-.121 0-.228-.109-.228-.232v-.465c0-.123.107-.232.228-.232h.454c.12 0 .227.11.227.232zm1.819 0v.465c0 .123-.107.232-.228.232H6.6c-.121 0-.228-.109-.228-.232v-.465c0-.123.107-.232.228-.232h.454c.121 0 .228.11.228.232zM5.463 7.456v.465c0 .123-.106.232-.227.232h-.454c-.121 0-.228-.109-.228-.232v-.465c0-.123.107-.232.228-.232h.454c.12 0 .227.109.227.232zm5.455 3.715v.464c0 .123-.107.232-.227.232h-.455c-.12 0-.227-.109-.227-.232v-.464c0-.124.106-.233.227-.233h.455c.12 0 .227.11.227.233zM9.1 9.313v.465c0 .123-.107.232-.228.232h-.454c-.12 0-.227-.109-.227-.232v-.465c0-.123.106-.232.227-.232h.454c.121 0 .228.11.228.232zM7.282 7.456v.465c0 .123-.107.232-.228.232H6.6c-.121 0-.228-.109-.228-.232v-.465c0-.123.107-.232.228-.232h.454c.121 0 .228.109.228.232zm3.636 1.857v.465c0 .123-.107.232-.227.232h-.455c-.12 0-.227-.109-.227-.232v-.465c0-.123.106-.232.227-.232h.455c.12 0 .227.11.227.232zM9.1 7.456v.465c0 .123-.107.232-.228.232h-.454c-.12 0-.227-.109-.227-.232v-.465c0-.123.106-.232.227-.232h.454c.121 0 .228.109.228.232zm1.818 0v.465c0 .123-.107.232-.227.232h-.455c-.12 0-.227-.109-.227-.232v-.465c0-.123.106-.232.227-.232h.455c.12 0 .227.109.227.232zM9.1 13.724h2.727V5.367h-1.818V5.6c0 .385-.306.697-.682.697H6.145c-.376 0-.682-.312-.682-.697v-.232H3.645v8.357h2.727V12.1c0-.123.107-.232.228-.232h2.272c.121 0 .228.109.228.232v1.625zm0-8.59v-2.32c0-.124-.107-.233-.228-.233h-.454c-.12 0-.227.11-.227.232v.697h-.91v-.697c0-.123-.106-.232-.227-.232H6.6c-.121 0-.228.11-.228.232v2.322c0 .123.107.232.228.232h.454c.121 0 .228-.109.228-.232v-.697h.909v.697c0 .123.106.232.227.232h.454c.121 0 .228-.109.228-.232zm3.636-.231v9.285c0 .254-.206.465-.454.465H3.19c-.249 0-.455-.21-.455-.465V4.903c0-.254.206-.465.455-.465h2.272V2.35c0-.384.306-.696.682-.696h3.182c.376 0 .682.312.682.696v2.09h2.273c.248 0 .454.21.454.464z"/>
</svg>
