<svg xmlns="http://www.w3.org/2000/svg" xmlns:xlink="http://www.w3.org/1999/xlink" width="14" height="14" viewBox="0 0 14 14">
    <defs>
        <path id="prefix__a" d="M0.007 0.105L10.973 0.105 10.973 12 0.007 12z"/>
        <path id="prefix__b" d="M0.007 0.105L10.973 0.105 10.973 12 0.007 12z"/>
    </defs>
    <g fill="none" fill-rule="evenodd" transform="translate(2 1)">
        <mask id="prefix__c" fill="#fff">
            <use xlink:href="#prefix__b"/>
        </mask>
        <path fill="#7F7F7F" d="M10.536 3.513c-.29-.29-.644-.434-1.06-.434-.415 0-.768.145-1.06.434-.29.289-.436.64-.436 1.053 0 .32.093.606.277.86.185.252.425.433.72.541v3.06c0 .547-.244 1.014-.732 1.4-.488.388-1.075.582-1.761.582-.686 0-1.273-.194-1.761-.581-.489-.387-.733-.854-.733-1.402V8.004c.852-.103 1.564-.434 2.135-.991.572-.558.858-1.208.858-1.952V1.097c0-.135-.05-.251-.148-.349-.1-.098-.216-.147-.351-.147-.031 0-.073.005-.125.015-.088-.155-.21-.278-.366-.372-.156-.092-.325-.139-.507-.139-.275 0-.51.097-.705.29-.195.194-.292.428-.292.702 0 .273.097.507.292.7.195.194.43.29.705.29.172 0 .338-.046.5-.139v3.113c0 .548-.245 1.015-.733 1.402-.489.387-1.076.58-1.762.58-.685 0-1.272-.193-1.761-.58-.488-.387-.732-.854-.732-1.402V1.948c.16.093.327.14.498.14.275 0 .51-.097.706-.29.194-.194.292-.428.292-.701 0-.274-.098-.508-.292-.701-.195-.194-.43-.29-.706-.29-.181 0-.35.046-.506.138C.834.338.712.461.624.616.572.606.53.601.499.601.364.6.247.65.148.748.05.846 0 .962 0 1.097V5.06c0 .744.286 1.394.857 1.952.572.557 1.283.888 2.135.991v1.022c0 .821.342 1.522 1.026 2.103.682.58 1.505.87 2.466.87.961 0 1.783-.29 2.467-.87.683-.58 1.024-1.282 1.024-2.103V5.967c.296-.108.536-.289.72-.542.185-.253.278-.539.278-.86 0-.412-.146-.763-.437-1.052zm-.709 1.401c-.098.098-.216.147-.35.147-.135 0-.252-.049-.351-.147-.099-.098-.148-.214-.148-.348 0-.134.05-.25.148-.349.099-.098.216-.147.35-.147.135 0 .253.05.351.147.099.098.148.215.148.349 0 .134-.05.25-.148.348z" mask="url(#prefix__c)"/>
    </g>
</svg>
